#N canvas 329 124 1920 1279 12;
#N canvas 635 314 1730 1001 phone_buttom 0;
#X msg 42 333 1209 697;
#X obj 42 357 s dialme;
#X obj 134 358 s dialme;
#X obj 224 356 s dialme;
#X obj 41 438 s dialme;
#X obj 135 440 s dialme;
#X obj 224 441 s dialme;
#X obj 40 528 s dialme;
#X obj 135 529 s dialme;
#X obj 229 529 s dialme;
#X obj 41 608 s dialme;
#X obj 138 609 s dialme;
#X obj 235 610 s dialme;
#X obj 134 310 r num2;
#X msg 134 334 1336 697;
#X obj 224 308 r num3;
#X msg 224 332 1477 697;
#X obj 41 390 r num4;
#X obj 135 392 r num5;
#X obj 224 393 r num6;
#X obj 40 480 r num7;
#X obj 135 481 r num8;
#X obj 229 481 r num9;
#X obj 41 560 r s1;
#X obj 138 561 r num0;
#X obj 235 562 r s2;
#X obj 339 212 bng 19 250 50 0 num1 empty empty 0 -10 0 12 #fcfcfc #000000 #000000;
#X obj 398 212 bng 19 250 50 0 num2 empty empty 0 -10 0 12 #fcfcfc #000000 #000000;
#X obj 455 213 bng 19 250 50 0 num3 empty empty 0 -10 0 12 #fcfcfc #000000 #000000;
#X obj 339 265 bng 19 250 50 0 num4 empty empty 0 -10 0 12 #fcfcfc #000000 #000000;
#X obj 397 264 bng 19 250 50 0 num5 empty empty 0 -10 0 12 #fcfcfc #000000 #000000;
#X obj 455 264 bng 19 250 50 0 num6 empty empty 0 -10 0 12 #fcfcfc #000000 #000000;
#X obj 340 317 bng 19 250 50 0 num7 empty empty 0 -10 0 12 #fcfcfc #000000 #000000;
#X obj 398 318 bng 19 250 50 0 num8 empty empty 0 -10 0 12 #fcfcfc #000000 #000000;
#X obj 457 316 bng 19 250 50 0 num9 empty empty 0 -10 0 12 #fcfcfc #000000 #000000;
#X obj 341 370 bng 19 250 50 0 s1 empty empty 0 -10 0 12 #fcfcfc #000000 #000000;
#X obj 399 371 bng 19 250 50 1 num0 empty empty 0 -10 0 12 #fcfcfc #000000 #000000;
#X obj 456 371 bng 19 250 50 0 s2 empty empty 0 -10 0 12 #fcfcfc #000000 #000000;
#X text 399 183 2;
#X text 456 184 3;
#X text 342 242 4;
#X text 397 241 5;
#X text 457 242 6;
#X text 343 294 7;
#X text 400 292 8;
#X text 458 293 9;
#X text 344 348 *;
#X text 402 345 0;
#X text 459 348 #;
#X obj 587 55 r dialme;
#X obj 587 79 t a b;
#X obj 587 103 unpack f f;
#X obj 587 127 osc~;
#X obj 608 159 +~;
#X obj 662 178 *~;
#X obj 590 207 hip~ 100;
#X obj 589 237 *~ 0.5;
#X obj 589 276 dac~;
#X obj 652 137 osc~;
#X msg 704 97 1 1;
#X obj 773 92 del 200;
#X obj 701 142 line~;
#X msg 41 414 1209 770;
#X msg 135 416 1336 770;
#X msg 224 417 1477 770;
#X msg 40 504 1209 852;
#X msg 135 505 1336 852;
#X msg 229 505 1477 852;
#X msg 41 584 1209 941;
#X msg 138 585 1336 941;
#X msg 235 586 1477 941;
#X msg 772 116 0 1;
#X text 339 183 1;
#X obj 42 309 r num1;
#X obj 341 155 sel 0 1 2 3 4 5 6 7 8 9;
#X obj 339 118 random 10;
#X floatatom 430 129 5 0 0 0 - - - 0;
#X floatatom 252 276 5 0 0 0 - - - 0;
#X obj 339 64 metro;
#X obj 252 108 vsl 19 162 0 1000 0 0 empty empty empty 0 -9 0 12 #faff00 #000000 #000000 0 1;
#X obj 182 183 tgl 30 0 empty empty empty 0 -10 0 12 #ff0400 #000000 #000000 0 1;
#X connect 0 0 1 0;
#X connect 13 0 14 0;
#X connect 14 0 2 0;
#X connect 15 0 16 0;
#X connect 16 0 3 0;
#X connect 17 0 62 0;
#X connect 18 0 63 0;
#X connect 19 0 64 0;
#X connect 20 0 65 0;
#X connect 21 0 66 0;
#X connect 22 0 67 0;
#X connect 23 0 68 0;
#X connect 24 0 69 0;
#X connect 25 0 70 0;
#X connect 49 0 50 0;
#X connect 50 0 51 0;
#X connect 50 1 59 0;
#X connect 50 1 60 0;
#X connect 51 0 52 0;
#X connect 51 1 58 0;
#X connect 52 0 53 0;
#X connect 53 0 54 0;
#X connect 54 0 55 0;
#X connect 55 0 56 0;
#X connect 56 0 57 0;
#X connect 56 0 57 1;
#X connect 58 0 53 1;
#X connect 59 0 61 0;
#X connect 60 0 71 0;
#X connect 61 0 54 1;
#X connect 62 0 4 0;
#X connect 63 0 5 0;
#X connect 64 0 6 0;
#X connect 65 0 7 0;
#X connect 66 0 8 0;
#X connect 67 0 9 0;
#X connect 68 0 10 0;
#X connect 69 0 11 0;
#X connect 70 0 12 0;
#X connect 71 0 61 0;
#X connect 73 0 0 0;
#X connect 74 0 36 0;
#X connect 74 1 26 0;
#X connect 74 2 27 0;
#X connect 74 3 28 0;
#X connect 74 4 29 0;
#X connect 74 5 30 0;
#X connect 74 6 31 0;
#X connect 74 7 32 0;
#X connect 74 8 33 0;
#X connect 74 9 34 0;
#X connect 75 0 74 0;
#X connect 75 0 76 0;
#X connect 77 0 78 1;
#X connect 78 0 75 0;
#X connect 79 0 77 0;
#X connect 80 0 78 0;
#X coords 0 -1 1 1 200 200 1 100 100;
#X restore 16 16 pd phone_buttom;
#N canvas 431 373 1993 1081 fail 0;
#X obj 155 5 loadbang;
#X msg 155 39 read -resize ./fail_to_calling.wav field-table;
#X obj 155 70 soundfiler;
#N canvas 0 50 450 250 (subpatch) 0;
#X array field-table 2.00361e+06 float 2;
#X coords 0 1 2.00361e+06 -1 200 140 1;
#X restore 304 83 graph;
#X floatatom 327 299 5 0 0 0 - - - 0;
#X obj 327 322 * 441;
#X obj 408 445 tabread4~ field-table;
#X obj 408 469 *~ 0.8;
#X obj 408 510 dac~;
#X floatatom 554 294 5 0 0 0 - - - 0;
#X obj 555 362 *~ 88200;
#X obj 555 386 +~ 200000;
#X obj 555 324 phasor~ 0.5;
#X obj 669 323 osc~ 0.2;
#X obj 327 370 line~;
#X floatatom 412 323 5 0 0 0 - - - 0;
#X obj 327 346 pack 0 500;
#X obj 125 128 vsl 19 162 0 5000 0 0 empty empty empty 0 -9 0 12 #9c00ff #000000 #000000 0 1;
#X obj 211 127 vsl 19 162 0 127 0 0 empty empty empty 0 -9 0 12 #9c00ff #000000 #000000 0 1;
#X obj 551 257 / 100;
#X connect 0 0 1 0;
#X connect 1 0 2 0;
#X connect 4 0 5 0;
#X connect 5 0 15 0;
#X connect 5 0 16 0;
#X connect 6 0 7 0;
#X connect 7 0 8 0;
#X connect 7 0 8 1;
#X connect 9 0 12 0;
#X connect 9 0 13 0;
#X connect 10 0 11 0;
#X connect 11 0 6 0;
#X connect 12 0 10 0;
#X connect 14 0 6 0;
#X connect 16 0 14 0;
#X connect 17 0 4 0;
#X connect 18 0 19 0;
#X connect 19 0 9 0;
#X coords 0 -1 1 1 200 200 1 100 100;
#X restore 267 23 pd fail;
