#N canvas 246 89 1920 1280 12;
#X obj 635 121 tgl 30 0 empty empty empty 0 -10 0 12 #ff0400 #000000 #000000 0 1;
#X obj 695 121 tgl 30 0 empty empty empty 0 -10 0 12 #ff0400 #000000 #000000 0 1;
#X obj 758 120 tgl 30 0 empty empty empty 0 -10 0 12 #ff0400 #000000 #000000 0 1;
#N canvas 911 314 1239 1118 main_music 0;
#X obj 461 151 float 0;
#X obj 522 151 + 1;
#X obj 333 513 mtof;
#X obj 504 705 vline~;
#X floatatom 461 175 5 0 0 0 - - - 0;
#X floatatom 364 175 5 0 0 0 - - - 0;
#X obj 585 151 spigot;
#X obj 452 700 *~;
#X obj 26 294 float 0;
#X obj 68 318 + 1;
#X floatatom 26 319 5 0 0 0 - - - 0;
#X obj 178 294 float 0;
#X obj 223 318 + 1;
#X floatatom 178 318 5 0 0 0 - - - 0;
#X obj 366 259 sel 0 1 2 3;
#X obj 328 292 float 0;
#X obj 371 317 + 1;
#X floatatom 328 317 5 0 0 0 - - - 0;
#X obj 480 292 float 0;
#X obj 524 316 + 1;
#X floatatom 480 316 5 0 0 0 - - - 0;
#X obj 364 198 mod 4;
#X obj 435 627 osc~;
#X obj 375 627 osc~;
#X floatatom 333 536 5 0 0 0 - - - 0;
#X obj 137 199 s envelope1;
#X obj 504 681 r envelope1;
#X obj 208 696 *~;
#X obj 275 706 vline~;
#X obj 364 151 div 16;
#X obj 26 368 sel 0 1 2 3;
#X obj 26 343 mod 4;
#X obj 177 342 mod 4;
#X obj 177 366 sel 0 1 2 3;
#X obj 328 341 mod 4;
#X obj 328 366 sel 0 1 2 3;
#X msg 26 393 69;
#X msg 61 393 71;
#X msg 95 393 72;
#X msg 128 393 76;
#X msg 177 393 67;
#X msg 212 393 71;
#X msg 245 393 72;
#X msg 281 393 76;
#X msg 328 391 65;
#X msg 361 391 71;
#X msg 394 391 72;
#X msg 430 391 76;
#X obj 480 340 mod 4;
#X obj 480 366 sel 0 1 2 3;
#X msg 480 392 64;
#X msg 584 392 76;
#X msg 548 392 71;
#X obj 435 603 * 0.5;
#X obj 489 627 osc~;
#X obj 489 603 * 1;
#X msg 515 392 69;
#X obj 375 650 *~ 0.5;
#X obj 489 651 *~ 0.75;
#X obj 435 651 *~ 1;
#X obj 375 602 * 0.25;
#X msg 137 126 1 5 \, 0.6 50 100 \, 0 300 195;
#X msg 137 175 1 20 \, 0.8 50 200 \, 0 200 180;
#X obj 137 101 s envelope3;
#X obj 41 695 *~;
#X obj 113 702 vline~;
#X obj 114 678 r envelope3;
#X obj 69 628 osc~;
#X msg 137 76 1 5 \, 0.6 50 5 \, 0 40 15;
#X obj 137 151 s envelope2;
#X obj 274 679 r envelope2;
#X obj 257 626 phasor~;
#X obj 194 627 phasor~;
#X obj 126 627 phasor~;
#X obj 69 604 * 2;
#X obj 194 603 * 0.5;
#X obj 257 602 * 1;
#X obj 126 602 * 2;
#X obj 69 652 *~ 0.15;
#X obj 126 651 *~ 0.1;
#X obj 194 651 *~ 0.1;
#X obj 257 650 *~ 0.1;
#X obj 484 28 inlet;
#X obj 617 29 inlet;
#X obj 424 874 dac~;
#X obj 214 780 *~;
#X obj 383 754 inlet;
#X obj 697 878 delwrite~ A 1000;
#X obj 834 878 delwrite~ B 1000;
#X obj 1096 830 delwrite~ D 1000;
#X obj 958 827 delwrite~ C 1000;
#X obj 836 707 delread~ B 143;
#X obj 956 707 delread~ C 165;
#X obj 699 752 +~;
#X obj 838 747 +~;
#X obj 957 745 +~;
#X obj 1095 735 -~;
#X obj 699 786 +~;
#X obj 837 782 -~;
#X obj 836 815 +~;
#X obj 1096 773 -~;
#X obj 698 819 +~;
#X obj 958 774 -~;
#X obj 701 707 delread~ A 101;
#X obj 1096 706 delread~ D 180;
#X obj 610 709 *~ 1;
#X obj 835 847 *~ 0.37;
#X obj 698 848 *~ 0.4;
#X obj 957 800 *~ 0.333;
#X obj 1096 802 *~ 0.3;
#X obj 460 128 metro 300;
#X connect 0 0 4 0;
#X connect 1 0 0 1;
#X connect 2 0 24 0;
#X connect 3 0 7 1;
#X connect 4 0 1 0;
#X connect 4 0 29 0;
#X connect 5 0 21 0;
#X connect 6 0 61 0;
#X connect 6 0 62 0;
#X connect 6 0 68 0;
#X connect 7 0 85 0;
#X connect 8 0 10 0;
#X connect 9 0 8 1;
#X connect 10 0 9 0;
#X connect 10 0 31 0;
#X connect 11 0 13 0;
#X connect 12 0 11 1;
#X connect 13 0 32 0;
#X connect 13 0 12 0;
#X connect 14 0 8 0;
#X connect 14 1 11 0;
#X connect 14 2 15 0;
#X connect 14 3 18 0;
#X connect 15 0 17 0;
#X connect 16 0 15 1;
#X connect 17 0 16 0;
#X connect 17 0 34 0;
#X connect 18 0 20 0;
#X connect 19 0 18 1;
#X connect 20 0 19 0;
#X connect 20 0 48 0;
#X connect 21 0 14 0;
#X connect 22 0 59 0;
#X connect 23 0 57 0;
#X connect 24 0 53 0;
#X connect 24 0 55 0;
#X connect 24 0 60 0;
#X connect 24 0 74 0;
#X connect 24 0 75 0;
#X connect 24 0 76 0;
#X connect 24 0 77 0;
#X connect 26 0 3 0;
#X connect 27 0 85 0;
#X connect 28 0 27 1;
#X connect 29 0 5 0;
#X connect 30 0 36 0;
#X connect 30 1 37 0;
#X connect 30 2 38 0;
#X connect 30 3 39 0;
#X connect 31 0 30 0;
#X connect 32 0 33 0;
#X connect 33 0 40 0;
#X connect 33 1 41 0;
#X connect 33 2 42 0;
#X connect 33 3 43 0;
#X connect 34 0 35 0;
#X connect 35 0 44 0;
#X connect 35 1 45 0;
#X connect 35 2 46 0;
#X connect 35 3 47 0;
#X connect 36 0 2 0;
#X connect 37 0 2 0;
#X connect 38 0 2 0;
#X connect 39 0 2 0;
#X connect 40 0 2 0;
#X connect 41 0 2 0;
#X connect 42 0 2 0;
#X connect 43 0 2 0;
#X connect 44 0 2 0;
#X connect 45 0 2 0;
#X connect 46 0 2 0;
#X connect 47 0 2 0;
#X connect 48 0 49 0;
#X connect 49 0 50 0;
#X connect 49 1 56 0;
#X connect 49 2 52 0;
#X connect 49 3 51 0;
#X connect 50 0 2 0;
#X connect 51 0 2 0;
#X connect 52 0 2 0;
#X connect 53 0 22 0;
#X connect 54 0 58 0;
#X connect 55 0 54 0;
#X connect 56 0 2 0;
#X connect 57 0 7 0;
#X connect 58 0 7 0;
#X connect 59 0 7 0;
#X connect 60 0 23 0;
#X connect 61 0 69 0;
#X connect 62 0 25 0;
#X connect 64 0 85 0;
#X connect 65 0 64 1;
#X connect 66 0 65 0;
#X connect 67 0 78 0;
#X connect 68 0 63 0;
#X connect 70 0 28 0;
#X connect 71 0 81 0;
#X connect 72 0 80 0;
#X connect 73 0 79 0;
#X connect 74 0 67 0;
#X connect 75 0 72 0;
#X connect 76 0 71 0;
#X connect 77 0 73 0;
#X connect 78 0 64 0;
#X connect 79 0 64 0;
#X connect 80 0 27 0;
#X connect 81 0 27 0;
#X connect 82 0 110 0;
#X connect 83 0 6 1;
#X connect 85 0 84 0;
#X connect 85 0 84 1;
#X connect 85 0 105 0;
#X connect 86 0 85 1;
#X connect 91 0 94 1;
#X connect 92 0 95 0;
#X connect 92 0 96 0;
#X connect 93 0 97 1;
#X connect 93 0 98 0;
#X connect 93 0 84 0;
#X connect 94 0 98 1;
#X connect 94 0 97 0;
#X connect 94 0 84 1;
#X connect 95 0 102 1;
#X connect 95 0 101 1;
#X connect 96 0 100 1;
#X connect 96 0 99 1;
#X connect 97 0 101 0;
#X connect 97 0 102 0;
#X connect 98 0 99 0;
#X connect 98 0 100 0;
#X connect 99 0 106 0;
#X connect 100 0 109 0;
#X connect 101 0 107 0;
#X connect 102 0 108 0;
#X connect 103 0 93 1;
#X connect 104 0 96 1;
#X connect 104 0 95 1;
#X connect 105 0 93 0;
#X connect 105 0 94 0;
#X connect 106 0 88 0;
#X connect 107 0 87 0;
#X connect 108 0 90 0;
#X connect 109 0 89 0;
#X connect 110 0 0 0;
#X connect 110 0 6 0;
#X restore 478 313 pd main_music;
#X obj 479 18 vsl 19 162 0 1 0 0 empty empty empty 0 -9 0 12 #0400ff #000000 #000000 0 1;
#X floatatom 489 192 5 0 0 0 - - - 0;
#X obj 541 15 vsl 19 162 0 1 0 0 empty empty empty 0 -9 0 12 #0400ff #000000 #000000 0 1;
#X floatatom 541 189 5 0 0 0 - - - 0;
#X text 467 -16 main;
#X text 533 -17 back;
#N canvas 1574 309 861 825 back 0;
#X obj 370 141 float 0;
#X obj 431 141 + 1;
#X obj 297 402 mtof;
#X obj 363 699 vline~;
#X floatatom 370 165 5 0 0 0 - - - 0;
#X obj 488 171 spigot;
#X obj 263 666 *~;
#X obj 275 202 mod 4;
#X obj 294 514 osc~;
#X floatatom 297 426 5 0 0 0 - - - 0;
#X obj 268 770 dac~;
#X obj 255 289 sel 0 1 2 3;
#X msg 255 313 69;
#X msg 290 314 67;
#X msg 324 314 65;
#X msg 357 314 64;
#X obj 294 490 * 2;
#X obj 240 515 osc~;
#X obj 240 491 * 1;
#X msg 488 195 1 1000 \, 0.8 5 2000 \, 0 1000 3800;
#X obj 181 515 osc~;
#X obj 181 491 * 0.5;
#X obj 118 516 osc~;
#X obj 118 492 * 0.25;
#X obj 354 515 osc~;
#X obj 354 491 * 0.75;
#X obj 418 516 phasor~;
#X obj 118 538 *~ 0.4;
#X obj 181 538 *~ 0.5;
#X obj 240 537 *~ 1;
#X obj 294 537 *~ 0.4;
#X obj 354 538 *~ 0.2;
#X obj 418 539 *~ 0.05;
#X obj 486 516 phasor~;
#X obj 486 539 *~ 0.05;
#X obj 418 492 * 4;
#X obj 486 492 * 3;
#X obj 488 219 s envelope0;
#X obj 363 675 r envelope0;
#X obj 500 37 inlet;
#X obj 277 36 inlet;
#X obj 269 716 *~;
#X obj 352 742 inlet;
#X obj 370 117 metro 4800;
#X connect 0 0 4 0;
#X connect 1 0 0 1;
#X connect 2 0 9 0;
#X connect 3 0 6 1;
#X connect 4 0 1 0;
#X connect 4 0 7 0;
#X connect 5 0 19 0;
#X connect 6 0 41 0;
#X connect 7 0 11 0;
#X connect 8 0 30 0;
#X connect 9 0 16 0;
#X connect 9 0 18 0;
#X connect 9 0 21 0;
#X connect 9 0 23 0;
#X connect 9 0 25 0;
#X connect 9 0 35 0;
#X connect 9 0 36 0;
#X connect 11 0 12 0;
#X connect 11 1 13 0;
#X connect 11 2 14 0;
#X connect 11 3 15 0;
#X connect 12 0 2 0;
#X connect 13 0 2 0;
#X connect 14 0 2 0;
#X connect 15 0 2 0;
#X connect 16 0 8 0;
#X connect 17 0 29 0;
#X connect 18 0 17 0;
#X connect 19 0 37 0;
#X connect 20 0 28 0;
#X connect 21 0 20 0;
#X connect 22 0 27 0;
#X connect 23 0 22 0;
#X connect 24 0 31 0;
#X connect 25 0 24 0;
#X connect 26 0 32 0;
#X connect 27 0 6 0;
#X connect 28 0 6 0;
#X connect 29 0 6 0;
#X connect 30 0 6 0;
#X connect 31 0 6 0;
#X connect 32 0 6 0;
#X connect 33 0 34 0;
#X connect 34 0 6 0;
#X connect 35 0 26 0;
#X connect 36 0 33 0;
#X connect 38 0 3 0;
#X connect 39 0 5 1;
#X connect 40 0 43 0;
#X connect 41 0 10 0;
#X connect 41 0 10 1;
#X connect 42 0 41 1;
#X connect 43 0 0 0;
#X connect 43 0 5 0;
#X restore 619 314 pd back;
#X text 627 73 master switch;
#X text 693 83 main;
#X text 756 84 back;
#X obj 239 282 r notes;
#X obj 237 141 tgl 30 0 empty empty empty 0 -10 0 12 #ff0400 #000000 #000000 0 1;
#N canvas 1360 360 1215 929 random_notes 1;
#X obj 47 47 inlet;
#X obj 59 166 + 1;
#X floatatom 49 302 5 0 0 0 - - - 0;
#X obj 49 325 outlet;
#X obj 51 105 bng 19 250 50 0 empty empty empty 0 -10 0 12 #fcfcfc #000000 #000000;
#X obj 47 139 i 0;
#X floatatom 46 222 5 0 0 0 - - - 0;
#X obj 234 188 table notes;
#X obj 50 261 tabread notes;
#X obj 47 71 metro;
#X floatatom 170 193 5 0 1000 0 - - - 0;
#X msg 213 73 \; notes 0 65 65 65 65 60 62 65 0 69;
#X obj 107 174 % 9;
#X msg 380 215 \; notes 0 61 67 74 76 0 67 74 67;
#X msg 380 264 \; notes 0 60 67 74 76 0 67 74 67;
#X msg 381 317 \; note 0 59 67 74 76 0 67 74 67;
#X msg 382 372 \; notes 0 58 67 72 78 0 67 72 67;
#X msg 379 417 \; notes 0 56;
#X obj 152 48 inlet;
#X connect 0 0 9 0;
#X connect 1 0 12 0;
#X connect 2 0 3 0;
#X connect 4 0 5 0;
#X connect 5 0 1 0;
#X connect 5 0 6 0;
#X connect 6 0 8 0;
#X connect 8 0 2 0;
#X connect 9 0 4 0;
#X connect 10 0 9 1;
#X connect 12 0 5 1;
#X connect 18 0 10 0;
#X restore 238 198 pd random_notes;
#X floatatom 238 222 5 0 0 0 - - - 0;
#X obj 238 245 s notes;
#N canvas 1373 655 1076 556 guitar 0;
#X floatatom 148 136 5 0 0 0 - - - 0;
#X obj 148 159 t b f;
#X obj 148 183 bng 19 250 50 0 empty empty empty 0 -10 0 12 #fcfcfc #000000 #000000;
#N canvas 1244 472 450 342 env 0;
#X obj 37 37 inlet;
#X obj 37 61 t b b;
#X obj 37 85 del 30;
#X msg 37 109 0;
#X obj 37 133 tgl 19 0 empty empty empty 0 -10 0 12 #fcfcfc #000000 #000000 0 1;
#X obj 37 157 outlet;
#X msg 145 112 1;
#X connect 0 0 1 0;
#X connect 1 0 2 0;
#X connect 1 1 6 0;
#X connect 2 0 3 0;
#X connect 3 0 4 0;
#X connect 4 0 5 0;
#X connect 6 0 4 0;
#X restore 148 207 pd env;
#X obj 143 249 *~;
#X obj 139 323 delwrite~ del 500;
#X floatatom 319 151 5 0 0 0 - - - 0;
#X obj 319 174 mtof;
#X obj 319 198 expr 1000 / $f1;
#X floatatom 319 222 5 0 0 0 - - - 0;
#X obj 319 245 delread4~ del;
#X obj 319 269 *~ 0.99;
#X obj 319 293 lop~ 5000;
#X obj 320 358 *~ 0.25;
#X obj 319 420 dac~;
#X obj 94 208 noise~;
#X obj 148 112 inlet;
#X connect 0 0 1 0;
#X connect 1 0 2 0;
#X connect 1 1 6 0;
#X connect 2 0 3 0;
#X connect 3 0 4 1;
#X connect 4 0 5 0;
#X connect 6 0 7 0;
#X connect 7 0 8 0;
#X connect 8 0 9 0;
#X connect 9 0 10 0;
#X connect 10 0 11 0;
#X connect 11 0 12 0;
#X connect 12 0 13 0;
#X connect 12 0 5 0;
#X connect 13 0 14 0;
#X connect 13 0 14 1;
#X connect 15 0 4 0;
#X connect 16 0 0 0;
#X restore 239 325 pd guitar;
#X obj 390 14 vsl 19 162 0 1000 0 0 empty empty empty 0 -9 0 12 #faff00 #000000 #000000 0 1;
#X floatatom 390 200 5 0 0 0 - - - 0;
#X obj 37 139 tgl 30 0 empty empty empty 0 -10 0 12 #ff0400 #000000 #000000 0 1;
#N canvas 1082 397 1201 563 phone_buttom 1;
#X msg 25 56 1209 697;
#X obj 25 80 s dialme;
#X obj 117 81 s dialme;
#X obj 207 79 s dialme;
#X obj 24 161 s dialme;
#X obj 118 163 s dialme;
#X obj 207 164 s dialme;
#X obj 23 251 s dialme;
#X obj 118 252 s dialme;
#X obj 212 252 s dialme;
#X obj 24 331 s dialme;
#X obj 121 332 s dialme;
#X obj 218 333 s dialme;
#X obj 117 33 r num2;
#X msg 117 57 1336 697;
#X obj 207 31 r num3;
#X msg 207 55 1477 697;
#X obj 24 113 r num4;
#X obj 118 115 r num5;
#X obj 207 116 r num6;
#X obj 23 203 r num7;
#X obj 118 204 r num8;
#X obj 212 204 r num9;
#X obj 24 283 r s1;
#X obj 121 284 r num0;
#X obj 218 285 r s2;
#X obj 339 212 bng 19 250 50 0 num1 empty empty 0 -10 0 12 #fcfcfc #000000 #000000;
#X obj 398 212 bng 19 250 50 0 num2 empty empty 0 -10 0 12 #fcfcfc #000000 #000000;
#X obj 455 213 bng 19 250 50 0 num3 empty empty 0 -10 0 12 #fcfcfc #000000 #000000;
#X obj 339 265 bng 19 250 50 0 num4 empty empty 0 -10 0 12 #fcfcfc #000000 #000000;
#X obj 397 264 bng 19 250 50 0 num5 empty empty 0 -10 0 12 #fcfcfc #000000 #000000;
#X obj 455 264 bng 19 250 50 0 num6 empty empty 0 -10 0 12 #fcfcfc #000000 #000000;
#X obj 340 317 bng 19 250 50 0 num7 empty empty 0 -10 0 12 #fcfcfc #000000 #000000;
#X obj 398 318 bng 19 250 50 0 num8 empty empty 0 -10 0 12 #fcfcfc #000000 #000000;
#X obj 457 316 bng 19 250 50 0 num9 empty empty 0 -10 0 12 #fcfcfc #000000 #000000;
#X obj 341 370 bng 19 250 50 0 s1 empty empty 0 -10 0 12 #fcfcfc #000000 #000000;
#X obj 399 371 bng 19 250 50 1 num0 empty empty 0 -10 0 12 #fcfcfc #000000 #000000;
#X obj 456 371 bng 19 250 50 0 s2 empty empty 0 -10 0 12 #fcfcfc #000000 #000000;
#X text 399 183 2;
#X text 456 184 3;
#X text 342 242 4;
#X text 397 241 5;
#X text 457 242 6;
#X text 343 294 7;
#X text 400 292 8;
#X text 458 293 9;
#X text 344 348 *;
#X text 402 345 0;
#X text 459 348 #;
#X obj 587 55 r dialme;
#X obj 587 79 t a b;
#X obj 587 103 unpack f f;
#X obj 587 127 osc~;
#X obj 608 159 +~;
#X obj 662 178 *~;
#X obj 590 207 hip~ 100;
#X obj 589 237 *~ 0.5;
#X obj 589 276 dac~;
#X obj 652 137 osc~;
#X msg 704 97 1 1;
#X obj 773 92 del 200;
#X obj 701 142 line~;
#X msg 24 137 1209 770;
#X msg 118 139 1336 770;
#X msg 207 140 1477 770;
#X msg 23 227 1209 852;
#X msg 118 228 1336 852;
#X msg 212 228 1477 852;
#X msg 24 307 1209 941;
#X msg 121 308 1336 941;
#X msg 218 309 1477 941;
#X msg 772 116 0 1;
#X text 339 183 1;
#X obj 25 32 r num1;
#X obj 341 155 sel 0 1 2 3 4 5 6 7 8 9;
#X obj 339 118 random 10;
#X floatatom 430 129 5 0 0 0 - - - 0;
#X floatatom 428 74 5 0 0 0 - - - 0;
#X obj 339 64 metro;
#X obj 337 21 inlet;
#X obj 428 31 inlet;
#X connect 0 0 1 0;
#X connect 13 0 14 0;
#X connect 14 0 2 0;
#X connect 15 0 16 0;
#X connect 16 0 3 0;
#X connect 17 0 62 0;
#X connect 18 0 63 0;
#X connect 19 0 64 0;
#X connect 20 0 65 0;
#X connect 21 0 66 0;
#X connect 22 0 67 0;
#X connect 23 0 68 0;
#X connect 24 0 69 0;
#X connect 25 0 70 0;
#X connect 49 0 50 0;
#X connect 50 0 51 0;
#X connect 50 1 59 0;
#X connect 50 1 60 0;
#X connect 51 0 52 0;
#X connect 51 1 58 0;
#X connect 52 0 53 0;
#X connect 53 0 54 0;
#X connect 54 0 55 0;
#X connect 55 0 56 0;
#X connect 56 0 57 0;
#X connect 56 0 57 1;
#X connect 58 0 53 1;
#X connect 59 0 61 0;
#X connect 60 0 71 0;
#X connect 61 0 54 1;
#X connect 62 0 4 0;
#X connect 63 0 5 0;
#X connect 64 0 6 0;
#X connect 65 0 7 0;
#X connect 66 0 8 0;
#X connect 67 0 9 0;
#X connect 68 0 10 0;
#X connect 69 0 11 0;
#X connect 70 0 12 0;
#X connect 71 0 61 0;
#X connect 73 0 0 0;
#X connect 74 0 36 0;
#X connect 74 1 26 0;
#X connect 74 2 27 0;
#X connect 74 3 28 0;
#X connect 74 4 29 0;
#X connect 74 5 30 0;
#X connect 74 6 31 0;
#X connect 74 7 32 0;
#X connect 74 8 33 0;
#X connect 74 9 34 0;
#X connect 75 0 74 0;
#X connect 75 0 76 0;
#X connect 77 0 78 1;
#X connect 78 0 75 0;
#X connect 79 0 78 0;
#X connect 80 0 77 0;
#X restore 37 198 pd phone_buttom;
#X obj 167 23 vsl 19 162 0 1000 0 0 empty empty empty 0 -9 0 12 #faff00 #000000 #000000 0 1;
#X floatatom 167 199 5 0 0 0 - - - 0;
#X connect 0 0 3 1;
#X connect 0 0 10 0;
#X connect 1 0 3 2;
#X connect 2 0 10 2;
#X connect 4 0 3 0;
#X connect 4 0 5 0;
#X connect 6 0 10 1;
#X connect 6 0 7 0;
#X connect 14 0 19 0;
#X connect 15 0 16 0;
#X connect 16 0 17 0;
#X connect 17 0 18 0;
#X connect 20 0 16 1;
#X connect 20 0 21 0;
#X connect 22 0 23 0;
#X connect 24 0 23 1;
#X connect 24 0 25 0;
