#N canvas 1906 0 1920 966 12;
#X text 227 243 main clock;
#X floatatom 210 328 5 0 0 0 - - - 0;
#X obj 203 372 loadbang;
#X text 248 417 set clock;
#X obj 206 455 send clock;
#X obj 212 294 receive clock;
#X text 514 150 main dashboard;
#X obj 497 451 receive bass;
#X obj 470 541 receive secondsequence;
#X obj 483 234 receive mainsequence;
#X obj 567 279 hsl 162 19 0 127 0 0 empty empty empty -2 -10 0 12 #0400ff #000000 #000000 0 1;
#X obj 560 387 hsl 162 19 0 127 0 0 empty empty empty -2 -10 0 12 #ff0400 #000000 #000000 0 1;
#X obj 561 497 hsl 162 19 0 127 0 0 empty empty empty -2 -10 0 12 #00faff #000000 #000000 0 1;
#X obj 561 601 hsl 162 19 0 127 0 0 empty empty empty -2 -10 0 12 #9c00ff #000000 #000000 0 1;
#X obj 644 555 r seco-f;
#X obj 642 450 r bass-f;
#X obj 650 250 r main-f;
#X text 78 98 controller;
#X obj 94 170 bng 19 250 50 0 empty empty empty 0 -10 0 12 #fcfcfc #000000 #000000;
#X text 82 132 start;
#X obj 94 203 s start;
#X text 364 679 left side is volume of each channel \, right side is some other things about each channel;
#X text 1088 34 sound controller;
#X obj 505 337 receive volin;
#X obj 646 339 r volin-f;
#X text 366 807 reference: work from u7302829 work from u7119769 https://anu365.sharepoint.com/sites/SMC2023/_layouts/15/stream.aspx?id=%2Fsites%2FSMC2023%2FShared%20Documents%2FGeneral%2Fdiary%2Dsubmissions%2Fdiary%2Dweek%2D10%2Fu7302829%2Dweek%2D10%2Emp4&referrer=Teams%2ETEAMS%2DELECTRON&referrerScenario=teamsSdk%2DopenFilePreview;
#X text 1069 932 melody disalpay;
#N canvas 8 137 1920 966 console 0;
#X obj 851 850 bng 19 250 50 0 empty empty empty 0 -10 0 12 #fcfcfc #000000 #000000;
#X obj 952 855 bng 19 250 50 0 empty empty empty 0 -10 0 12 #fcfcfc #000000 #000000;
#X obj 1066 855 bng 19 250 50 0 empty empty empty 0 -10 0 12 #fcfcfc #000000 #000000;
#X obj 1200 856 bng 19 250 50 0 empty empty empty 0 -10 0 12 #fcfcfc #000000 #000000;
#X text 125 159 1;
#X text 170 154 2;
#X text 208 160 3;
#X text 267 159 4;
#X obj 122 122 tgl 19 0 empty empty empty 0 -10 0 12 #fcfcfc #000000 #000000 0 1;
#X obj 158 317 s volin;
#X obj 171 124 tgl 19 0 empty empty empty 0 -10 0 12 #fcfcfc #000000 #000000 0 1;
#X obj 216 119 tgl 19 0 empty empty empty 0 -10 0 12 #fcfcfc #000000 #000000 0 1;
#X obj 305 324 s bass;
#X obj 259 125 tgl 19 0 empty empty empty 0 -10 0 12 #fcfcfc #000000 #000000 0 1;
#X obj 232 323 s piano2;
#X obj 98 319 s piano;
#X text 111 102 piano;
#X text 161 99 volin;
#X text 209 102 piano2;
#X text 259 105 bass;
#X connect 8 0 15 0;
#X connect 10 0 9 0;
#X connect 11 0 14 0;
#X connect 13 0 12 0;
#X coords 0 -1 1 1 200 80 2 100 100;
#X restore 1023 826 pd console;
#N canvas 1890 158 1920 966 frequence 0;
#X obj 131 204 vsl 19 162 0 1 0 0 empty empty empty 0 -9 0 12 #00ff04 #000000 #000000 0 1;
#X obj 237 213 vsl 19 162 0 1 0 0 empty empty empty 0 -9 0 12 #0400ff #000000 #000000 0 1;
#X obj 341 225 vsl 19 162 0 2 0 0 empty empty empty 0 -9 0 12 #9c00ff #000000 #000000 0 1;
#X obj 457 223 vsl 19 162 0 2 0 0 empty empty empty 0 -9 0 12 #00faff #000000 #000000 0 1;
#X obj 370 462 send mainsequence;
#X obj 69 456 send volinf;
#X obj 539 458 send bassf;
#X obj 218 461 send piano2f;
#X text 103 184 volin frequence;
#X text 203 157 seco frequence;
#X text 287 131 mainsequence frequence;
#X text 391 181 bass frequence;
#X connect 0 0 5 0;
#X connect 1 0 7 0;
#X connect 2 0 4 0;
#X connect 3 0 6 0;
#X coords 0 -1 2 1 400 300 1 100 100;
#X restore 882 450 pd frequence controller;
#N canvas 1918 364 1920 966 soundcontroller 0;
#X obj 129 214 vsl 19 162 0 1 0 0 empty empty empty 0 -9 0 12 #00ff04 #000000 #000000 0 1;
#X obj 232 209 vsl 19 162 0 1 0 0 empty empty empty 0 -9 0 12 #0400ff #000000 #000000 0 1;
#X obj 328 213 vsl 19 162 0 1 0 0 empty empty empty 0 -9 0 12 #9c00ff #000000 #000000 0 1;
#X obj 452 214 vsl 19 162 0 1 0 0 empty empty empty 0 -9 0 12 #00faff #000000 #000000 0 1;
#X text 423 184 bass sound;
#X text 287 178 mainsequence sound;
#X text 204 175 seco sound;
#X text 109 172 volin sound;
#X obj 509 570 send basssound;
#X obj 39 568 send volinsound;
#X obj 187 573 send piano2sound;
#X obj 340 574 send pianosound;
#X connect 0 0 9 0;
#X connect 1 0 10 0;
#X connect 2 0 11 0;
#X connect 3 0 8 0;
#X coords 0 -1 1 1 400 300 1 100 100;
#X restore 878 150 pd soundcontroller;
#X text 945 478 comment;
#X text 369 737;
#X obj 108 390 vsl 19 162 0 150 0 0 empty empty empty 0 -9 0 12 #dfdfdf #000000 #000000 0 1;
#X msg 170 408 120;
#X connect 2 0 32 0;
#X connect 2 0 33 0;
#X connect 5 0 1 0;
#X connect 14 0 13 0;
#X connect 15 0 12 0;
#X connect 16 0 10 0;
#X connect 18 0 20 0;
#X connect 24 0 11 0;
#X connect 32 0 4 0;
#X connect 33 0 4 0;
