#N canvas 1906 0 1920 966 12;
#X text 227 243 main clock;
#X floatatom 210 328 5 0 0 0 - - - 0;
#X obj 203 372 loadbang;
#X text 248 417 set clock;
#X obj 206 455 send clock;
#X obj 212 294 receive clock;
#X text 514 150 main dashboard;
#X obj 497 451 receive bass;
#X obj 470 541 receive secondsequence;
#X obj 483 234 receive mainsequence;
#X obj 387 280 hsl 162 19 0 127 0 0 empty empty empty -2 -10 0 12 #0400ff #000000 #000000 0 1;
#X obj 380 388 hsl 162 19 0 127 0 0 empty empty empty -2 -10 0 12 #ff0400 #000000 #000000 0 1;
#X obj 384 492 hsl 162 19 0 127 0 0 empty empty empty -2 -10 0 12 #00faff #000000 #000000 0 1;
#X obj 381 602 hsl 162 19 0 127 0 0 empty empty empty -2 -10 0 12 #9c00ff #000000 #000000 0 1;
#X obj 567 279 hsl 162 19 0 127 0 0 empty empty empty -2 -10 0 12 #0400ff #000000 #000000 0 1;
#X obj 560 387 hsl 162 19 0 127 0 0 empty empty empty -2 -10 0 12 #ff0400 #000000 #000000 0 1;
#X obj 561 497 hsl 162 19 0 127 0 0 empty empty empty -2 -10 0 12 #00faff #000000 #000000 0 1;
#X obj 561 601 hsl 162 19 0 127 0 0 empty empty empty -2 -10 0 12 #9c00ff #000000 #000000 0 1;
#X obj 390 249 r main-v;
#X obj 398 450 r bass-v;
#X obj 399 559 r seco-v;
#X obj 644 555 r seco-f;
#X obj 642 450 r bass-f;
#X obj 650 250 r main-f;
#X text 78 98 controller;
#X obj 94 170 bng 19 250 50 0 empty empty empty 0 -10 0 12 #fcfcfc #000000 #000000;
#X text 82 132 start;
#X obj 94 203 s start;
#X text 369 737 It just a tiny demo \, we need to add more paraments in the final performance;
#X text 364 679 left side is volume of each channel \, right side is some other things about each channel;
#X text 1088 34 sound controller;
#X obj 505 337 receive volin;
#X obj 646 339 r volin-f;
#X obj 388 341 r volin-v;
#X obj 1510 368 hsl 162 19 0 127 0 0 empty empty empty -2 -10 0 12 #9f9f9f #000000 #000000 0 1;
#X text 1518 411 (not avilable now);
#X obj 1513 564 hsl 162 19 0 127 0 0 empty empty empty -2 -10 0 12 #551312 #000000 #000000 0 1;
#X text 1521 607 (not avilable now);
#X text 1524 479 beal;
#X obj 1519 515 r beal-v;
#X text 366 807 reference: work from u7302829 work from u7119769 https://anu365.sharepoint.com/sites/SMC2023/_layouts/15/stream.aspx?id=%2Fsites%2FSMC2023%2FShared%20Documents%2FGeneral%2Fdiary%2Dsubmissions%2Fdiary%2Dweek%2D10%2Fu7302829%2Dweek%2D10%2Emp4&referrer=Teams%2ETEAMS%2DELECTRON&referrerScenario=teamsSdk%2DopenFilePreview;
#X obj 1504 174 hsl 162 19 0 127 0 0 empty empty empty -2 -10 0 12 #dfdfdf #000000 #000000 0 1;
#X obj 1510 125 r acid-v;
#X text 1515 89 acid;
#X text 1512 217 (not avilable now);
#X text 1521 283 wind;
#X obj 1723 370 hsl 162 19 0 127 0 0 empty empty empty -2 -10 0 12 #c6ffc7 #000000 #000000 0 1;
#X text 1731 413 (not avilable now);
#X obj 1726 566 hsl 162 19 0 127 0 0 empty empty empty -2 -10 0 12 #535512 #000000 #000000 0 1;
#X text 1734 609 (not avilable now);
#X obj 1717 176 hsl 162 19 0 127 0 0 empty empty empty -2 -10 0 12 #faff00 #000000 #000000 0 1;
#X obj 1723 127 r acid-v;
#X text 1725 219 (not avilable now);
#X text 1728 91 startsound;
#X obj 1517 319 r wind-v;
#X text 1734 285 middlesound;
#X text 1737 481 endsound;
#X obj 1729 321 r middlesound-v;
#X obj 1732 517 r endsound-v;
#X text 1069 932 melody disalpay;
#N canvas 8 137 1920 966 console 0;
#X obj 851 850 bng 19 250 50 0 empty empty empty 0 -10 0 12 #fcfcfc #000000 #000000;
#X obj 952 855 bng 19 250 50 0 empty empty empty 0 -10 0 12 #fcfcfc #000000 #000000;
#X obj 1066 855 bng 19 250 50 0 empty empty empty 0 -10 0 12 #fcfcfc #000000 #000000;
#X obj 1200 856 bng 19 250 50 0 empty empty empty 0 -10 0 12 #fcfcfc #000000 #000000;
#X text 125 159 1;
#X text 170 154 2;
#X text 208 160 3;
#X text 267 159 4;
#X obj 122 122 tgl 19 0 empty empty empty 0 -10 0 12 #fcfcfc #000000 #000000 0 1;
#X obj 158 317 s volin;
#X obj 171 124 tgl 19 0 empty empty empty 0 -10 0 12 #fcfcfc #000000 #000000 0 1;
#X obj 216 119 tgl 19 0 empty empty empty 0 -10 0 12 #fcfcfc #000000 #000000 0 1;
#X obj 305 324 s bass;
#X obj 259 125 tgl 19 0 empty empty empty 0 -10 0 12 #fcfcfc #000000 #000000 0 1;
#X obj 232 323 s piano2;
#X obj 98 319 s piano;
#X text 111 102 piano;
#X text 161 99 volin;
#X text 209 102 piano2;
#X text 259 105 bass;
#X connect 8 0 15 0;
#X connect 10 0 9 0;
#X connect 11 0 14 0;
#X connect 13 0 12 0;
#X coords 0 -1 1 1 200 80 2 100 100;
#X restore 1023 826 pd console;
#N canvas 1890 158 1920 966 frequence 0;
#X obj 131 204 vsl 19 162 0 1 0 0 empty empty empty 0 -9 0 12 #00ff04 #000000 #000000 0 1;
#X obj 237 213 vsl 19 162 0 1 0 0 empty empty empty 0 -9 0 12 #0400ff #000000 #000000 0 1;
#X obj 341 225 vsl 19 162 0 2 0 0 empty empty empty 0 -9 0 12 #9c00ff #000000 #000000 0 1;
#X obj 457 223 vsl 19 162 0 2 0 0 empty empty empty 0 -9 0 12 #00faff #000000 #000000 0 1;
#X text 423 181 bass sound;
#X text 287 180 mainsequence sound;
#X text 203 175 seco sound;
#X obj 370 462 send mainsequence;
#X text 103 184 volin sound;
#X obj 69 456 send volinf;
#X obj 539 458 send bassf;
#X obj 218 461 send piano2f;
#X connect 0 0 9 0;
#X connect 1 0 11 0;
#X connect 2 0 7 0;
#X connect 3 0 10 0;
#X coords 0 -1 2 1 400 300 1 100 100;
#X restore 876 461 pd frequence controller;
#N canvas 1918 364 1920 966 soundcontroller 0;
#X obj 129 214 vsl 19 162 0 1 0 0 empty empty empty 0 -9 0 12 #00ff04 #000000 #000000 0 1;
#X obj 232 209 vsl 19 162 0 1 0 0 empty empty empty 0 -9 0 12 #0400ff #000000 #000000 0 1;
#X obj 328 213 vsl 19 162 0 1 0 0 empty empty empty 0 -9 0 12 #9c00ff #000000 #000000 0 1;
#X obj 452 214 vsl 19 162 0 1 0 0 empty empty empty 0 -9 0 12 #00faff #000000 #000000 0 1;
#X text 423 184 bass sound;
#X text 287 178 mainsequence sound;
#X text 204 175 seco sound;
#X text 109 172 volin sound;
#X obj 509 570 send basssound;
#X obj 39 568 send volinsound;
#X obj 187 573 send piano2sound;
#X obj 340 574 send pianosound;
#X connect 0 0 9 0;
#X connect 1 0 10 0;
#X connect 2 0 11 0;
#X connect 3 0 8 0;
#X coords 0 -1 1 1 400 300 1 100 100;
#X restore 878 150 pd soundcontroller;
#X msg 204 413 120;
#X text 945 478;
#X connect 2 0 63 0;
#X connect 5 0 1 0;
#X connect 18 0 10 0;
#X connect 19 0 12 0;
#X connect 20 0 13 0;
#X connect 21 0 17 0;
#X connect 22 0 16 0;
#X connect 23 0 14 0;
#X connect 25 0 27 0;
#X connect 32 0 15 0;
#X connect 33 0 11 0;
#X connect 39 0 36 0;
#X connect 42 0 41 0;
#X connect 51 0 50 0;
#X connect 54 0 34 0;
#X connect 57 0 46 0;
#X connect 58 0 48 0;
#X connect 63 0 4 0;
