#N canvas 1906 0 1920 966 12;
#X text 1088 34 sound controller;
#X obj 200 359 hsl 162 19 0 3 0 0 empty empty empty -2 -10 0 12 #9f9f9f #000000 #000000 0 1;
#X text 249 424 (not avilable now);
#X obj 190 554 hsl 162 19 0 2 0 0 empty empty empty -2 -10 0 12 #551312 #000000 #000000 0 1;
#X obj 180 178 hsl 162 19 0 127 0 0 empty empty empty -2 -10 0 12 #dfdfdf #000000 #000000 0 1;
#X obj 186 129 r acid-v;
#X text 191 93 acid;
#X text 188 221 (not avilable now);
#X text 197 287 wind;
#X obj 399 374 hsl 162 19 0 127 0 0 empty empty empty -2 -10 0 12 #c6ffc7 #000000 #000000 0 1;
#X text 407 417 (not avilable now);
#X obj 402 570 hsl 162 19 0 127 0 0 empty empty empty -2 -10 0 12 #535512 #000000 #000000 0 1;
#X text 410 613 (not avilable now);
#X obj 393 180 hsl 162 19 0 127 0 0 empty empty empty -2 -10 0 12 #faff00 #000000 #000000 0 1;
#X obj 399 131 r acid-v;
#X text 401 223 (not avilable now);
#X text 404 95 startsound;
#X text 410 289 middlesound;
#X text 413 485 endsound;
#X obj 405 325 r middlesound-v;
#X obj 408 521 r endsound-v;
#X obj 179 421 s wind;
#X obj 906 496 dac~;
#X obj 977 351 readsf~ 2;
#X obj 930 227 r wind;
#X msg 977 319 open ./wind.wav \, 1;
#X obj 952 427 *~;
#X obj 261 295 bng 19 250 50 0 empty empty empty 0 -10 0 12 #fcfcfc #000000 #000000;
#X obj 252 327 s w-start;
#X obj 1082 202 r w-start;
#X obj 1221 515 dac~;
#X obj 1292 370 readsf~ 2;
#X obj 1267 446 *~;
#X obj 1245 246 r clock;
#X obj 1397 221 r c-start;
#X msg 1292 338 open ./bigclock.wav \, 1;
#X obj 138 665 s clock;
#X obj 245 470 bng 19 250 50 0 empty empty empty 0 -10 0 12 #fcfcfc #000000 #000000;
#X text 181 462 clock;
#X obj 236 502 s c-start;
#X connect 1 0 21 0;
#X connect 3 0 36 0;
#X connect 5 0 4 0;
#X connect 14 0 13 0;
#X connect 19 0 9 0;
#X connect 20 0 11 0;
#X connect 23 0 26 0;
#X connect 23 1 26 0;
#X connect 24 0 26 1;
#X connect 25 0 23 0;
#X connect 26 0 22 0;
#X connect 26 0 22 1;
#X connect 27 0 28 0;
#X connect 29 0 25 0;
#X connect 31 0 32 0;
#X connect 31 1 32 0;
#X connect 32 0 30 0;
#X connect 32 0 30 1;
#X connect 33 0 32 1;
#X connect 34 0 35 0;
#X connect 35 0 31 0;
#X connect 37 0 39 0;
