#N canvas 1906 0 1920 966 12;
#X text 1088 34 sound controller;
#X obj 200 359 hsl 162 19 0 3 0 0 empty empty empty -2 -10 0 12 #9f9f9f #000000 #000000 0 1;
#X obj 190 554 hsl 162 19 0 2 0 0 empty empty empty -2 -10 0 12 #551312 #000000 #000000 0 1;
#X obj 180 178 hsl 162 19 0 3 0 0 empty empty empty -2 -10 0 12 #dfdfdf #000000 #000000 0 1;
#X text 191 93 acid;
#X text 197 287 wind;
#X obj 179 421 s wind;
#X obj 906 496 dac~;
#X obj 977 351 readsf~ 2;
#X obj 930 227 r wind;
#X msg 977 319 open ./wind.wav \, 1;
#X obj 952 427 *~;
#X obj 261 295 bng 19 250 50 0 empty empty empty 0 -10 0 12 #fcfcfc #000000 #000000;
#X obj 252 327 s w-start;
#X obj 1082 202 r w-start;
#X obj 1221 515 dac~;
#X obj 1292 370 readsf~ 2;
#X obj 1267 446 *~;
#X obj 1245 246 r clock;
#X obj 1397 221 r c-start;
#X msg 1292 338 open ./bigclock.wav \, 1;
#X obj 138 665 s clock;
#X obj 245 470 bng 19 250 50 0 empty empty empty 0 -10 0 12 #fcfcfc #000000 #000000;
#X text 181 462 clock;
#X obj 236 502 s c-start;
#X obj 892 845 dac~;
#X obj 963 700 readsf~ 2;
#X obj 938 776 *~;
#X obj 916 576 r acid;
#X obj 1068 551 r w-acid;
#X obj 157 251 s acid;
#X obj 329 125 s w-acid;
#X obj 355 67 bng 19 250 50 0 empty empty empty 0 -10 0 12 #fcfcfc #000000 #000000;
#X msg 963 668 open ./acid.wav \, 1;
#X connect 1 0 6 0;
#X connect 2 0 21 0;
#X connect 3 0 30 0;
#X connect 8 0 11 0;
#X connect 8 1 11 0;
#X connect 9 0 11 1;
#X connect 10 0 8 0;
#X connect 11 0 7 0;
#X connect 11 0 7 1;
#X connect 12 0 13 0;
#X connect 14 0 10 0;
#X connect 16 0 17 0;
#X connect 16 1 17 0;
#X connect 17 0 15 0;
#X connect 17 0 15 1;
#X connect 18 0 17 1;
#X connect 19 0 20 0;
#X connect 20 0 16 0;
#X connect 22 0 24 0;
#X connect 26 0 27 0;
#X connect 26 1 27 0;
#X connect 27 0 25 0;
#X connect 27 0 25 1;
#X connect 28 0 27 1;
#X connect 29 0 33 0;
#X connect 32 0 31 0;
#X connect 33 0 26 0;
