#N canvas 1906 0 1920 966 12;
#X text 1034 657 melody disalpay;
#N canvas 8 137 1920 966 console 0;
#X obj 851 850 bng 19 250 50 0 empty empty empty 0 -10 0 12 #fcfcfc #000000 #000000;
#X obj 952 855 bng 19 250 50 0 empty empty empty 0 -10 0 12 #fcfcfc #000000 #000000;
#X obj 1066 855 bng 19 250 50 0 empty empty empty 0 -10 0 12 #fcfcfc #000000 #000000;
#X obj 1200 856 bng 19 250 50 0 empty empty empty 0 -10 0 12 #fcfcfc #000000 #000000;
#X text 125 159 1;
#X text 170 154 2;
#X text 208 160 3;
#X text 267 159 4;
#X obj 122 122 tgl 19 0 empty empty empty 0 -10 0 12 #fcfcfc #000000 #000000 0 1;
#X obj 158 317 s volin;
#X obj 171 124 tgl 19 0 empty empty empty 0 -10 0 12 #fcfcfc #000000 #000000 0 1;
#X obj 216 119 tgl 19 0 empty empty empty 0 -10 0 12 #fcfcfc #000000 #000000 0 1;
#X obj 305 324 s bass;
#X obj 259 125 tgl 19 0 empty empty empty 0 -10 0 12 #fcfcfc #000000 #000000 0 1;
#X obj 232 323 s piano2;
#X obj 98 319 s piano;
#X text 111 102 piano;
#X text 161 99 volin;
#X text 209 102 piano2;
#X text 259 105 bass;
#X connect 8 0 15 0;
#X connect 10 0 9 0;
#X connect 11 0 14 0;
#X connect 13 0 12 0;
#X coords 0 -1 1 1 200 80 2 100 100;
#X restore 988 551 pd console;
#N canvas 1918 364 1920 966 switch 0;
#X text 423 184 bass sound;
#X text 287 178 mainsequence sound;
#X text 204 175 seco sound;
#X text 109 172 volin sound;
#X obj 39 568 send switch-v;
#X obj 187 573 send switch-p2;
#X obj 340 574 send switch-p;
#X obj 509 570 send switch-b;
#X obj 125 274 bng 19 250 50 0 empty empty empty 0 -10 0 12 #fcfcfc #000000 #000000;
#X obj 127 350 bng 19 250 50 0 empty empty empty 0 -10 0 12 #fcfcfc #000000 #000000;
#X msg 65 473 0;
#X msg 142 478 1;
#X obj 236 273 bng 19 250 50 0 empty empty empty 0 -10 0 12 #fcfcfc #000000 #000000;
#X obj 238 349 bng 19 250 50 0 empty empty empty 0 -10 0 12 #fcfcfc #000000 #000000;
#X msg 176 472 0;
#X msg 253 477 1;
#X obj 352 270 bng 19 250 50 0 empty empty empty 0 -10 0 12 #fcfcfc #000000 #000000;
#X obj 354 346 bng 19 250 50 0 empty empty empty 0 -10 0 12 #fcfcfc #000000 #000000;
#X msg 292 469 0;
#X msg 369 474 1;
#X obj 465 268 bng 19 250 50 0 empty empty empty 0 -10 0 12 #fcfcfc #000000 #000000;
#X obj 467 344 bng 19 250 50 0 empty empty empty 0 -10 0 12 #fcfcfc #000000 #000000;
#X msg 405 467 0;
#X msg 482 472 1;
#X connect 8 0 10 0;
#X connect 9 0 11 0;
#X connect 10 0 4 0;
#X connect 11 0 4 0;
#X connect 12 0 14 0;
#X connect 13 0 15 0;
#X connect 14 0 5 0;
#X connect 15 0 5 0;
#X connect 16 0 18 0;
#X connect 17 0 19 0;
#X connect 18 0 6 0;
#X connect 19 0 6 0;
#X connect 20 0 22 0;
#X connect 21 0 23 0;
#X connect 22 0 7 0;
#X connect 23 0 7 0;
#X coords 0 -1 1 1 400 300 1 100 100;
#X restore 878 150 pd switch;
