#N canvas 127 100 1920 998 12;
#N canvas 1918 123 1920 997 main_melody 0;
#X obj 555 958 dac~;
#N canvas 719 86 958 988 flute_sound 0;
#X obj 334 504 inlet~;
#X obj 328 784 outlet~;
#X obj 512 601 / 127;
#X floatatom 512 624 5 0 0 0 - - - 0;
#X obj 286 625 osc~;
#X obj 48 381 osc~ 7;
#X obj 406 637 +~;
#X obj 342 685 *~;
#X obj 417 556 osc~ 6;
#X obj 415 594 *~ 0.1;
#X obj 292 581 +~;
#X obj 129 141 hsl 162 19 0 127 0 0 empty empty volume -2 -10 0 12 #c7c6ff #000000 #000000 0 1;
#X obj 332 542 *~ 1;
#X obj 131 489 *~ 3;
#X connect 0 0 12 0;
#X connect 2 0 3 0;
#X connect 2 0 6 1;
#X connect 4 0 7 0;
#X connect 5 0 13 0;
#X connect 6 0 7 1;
#X connect 7 0 1 0;
#X connect 8 0 9 0;
#X connect 9 0 6 0;
#X connect 10 0 4 0;
#X connect 11 0 2 0;
#X connect 12 0 10 1;
#X connect 13 0 10 0;
#X coords 0 -1 1 1 200 150 1 100 100;
#X restore 518 319 pd flute_sound;
#N canvas 1917 0 1920 997 enco_bell 0;
#X obj 445 293 *~;
#X obj 467 244 vline~;
#X obj 701 282 *~ 1;
#X obj 771 587 delwrite~ A 1000;
#X obj 906 587 delwrite~ B 1000;
#X obj 1133 586 delwrite~ D 1000;
#X obj 1020 587 delwrite~ C 1000;
#X obj 760 255 delread~ A 101;
#X obj 894 255 delread~ B 143;
#X obj 1014 255 delread~ C 165;
#X obj 1154 254 delread~ D 177;
#X obj 763 312 +~;
#X obj 893 314 +~;
#X obj 1013 410 +~;
#X obj 1157 404 -~;
#X obj 762 417 +~;
#X obj 889 415 -~;
#X obj 894 512 +~;
#X obj 1166 511 -~;
#X obj 771 515 +~;
#X obj 1015 511 -~;
#X obj 769 554 *~ 0.4;
#X obj 909 555 *~ 0.37;
#X obj 1018 554 *~ 0.333;
#X obj 1134 556 *~ 0.3;
#X obj 496 361 *~ 0.2;
#X msg 449 167 1 15 \, 0 300 20;
#X obj 523 488 outlet~;
#X obj 472 94 inlet;
#X obj 318 132 osc~;
#X obj 318 49 inlet~;
#X connect 0 0 25 0;
#X connect 1 0 0 1;
#X connect 2 0 11 0;
#X connect 2 0 12 0;
#X connect 7 0 11 1;
#X connect 8 0 12 1;
#X connect 9 0 13 0;
#X connect 9 0 14 0;
#X connect 10 0 14 1;
#X connect 10 0 13 1;
#X connect 11 0 15 1;
#X connect 11 0 16 0;
#X connect 11 0 27 0;
#X connect 12 0 16 1;
#X connect 12 0 15 0;
#X connect 12 0 27 0;
#X connect 13 0 20 1;
#X connect 13 0 19 1;
#X connect 14 0 18 1;
#X connect 14 0 17 1;
#X connect 15 0 19 0;
#X connect 15 0 20 0;
#X connect 16 0 17 0;
#X connect 16 0 18 0;
#X connect 17 0 22 0;
#X connect 18 0 24 0;
#X connect 19 0 21 0;
#X connect 20 0 23 0;
#X connect 21 0 3 0;
#X connect 22 0 4 0;
#X connect 23 0 6 0;
#X connect 24 0 5 0;
#X connect 25 0 2 0;
#X connect 25 0 27 0;
#X connect 26 0 1 0;
#X connect 28 0 26 0;
#X connect 29 0 0 0;
#X connect 30 0 29 0;
#X restore 589 -73 pd enco_bell;
#N canvas 26 26 450 250 (subpatch) 0;
#X array MAIN_MELODAY 128 float 3;
#A 0 72 72 71 71 69 69 67 64 64 64 64 64 62 62 60 60 62 62 67 67 67 67 64 64 64 64 64 64 69 69 71 71 72 72 71 71 69 69 67 64 64 64 64 64 62 62 60 60 62 62 60 60 60 60 60 60 60 60 60 60 69 69 71 71 72 72 71 71 69 69 67 64 64 64 64 64 62 62 60 60 62 62 67 67 67 67 64 64 64 64 64 64 62 62 60 60 62 62 67 67 67 67 64 64 64 64 64 64 62 62 60 60 62 62 60 60 60 60 60 60 60 60 60 60 60 60 60 60;
#X coords 0 80 128 50 400 280 1 0 0;
#X restore 544 517 graph;
#X obj 1094 314 array set MAIN_MELODAY;
#X obj 343 793 array get MAIN_MELODAY;
#N canvas 831 319 367 468 counter_Main 0;
#X obj 81 51 inlet toggle;
#X obj 86 190 metro 144;
#X obj 119 93 sel 0;
#X msg 119 117 0;
#X obj 250 131 inlet speed;
#X obj 93 248 f, f 8;
#X obj 287 249 + 1;
#X obj 102 326 outlet cnt;
#X floatatom 152 120 5 0 0 0 - - - 0;
#X obj 100 287 % 128;
#X connect 0 0 1 0;
#X connect 0 0 2 0;
#X connect 1 0 5 0;
#X connect 2 0 3 0;
#X connect 3 0 5 1;
#X connect 4 0 1 1;
#X connect 5 0 6 0;
#X connect 5 0 9 0;
#X connect 6 0 5 1;
#X connect 9 0 7 0;
#X connect 9 0 8 0;
#X coords 0 -1 1 1 85 60 1 100 100;
#X restore 352 159 pd counter_Main;
#X floatatom 298 198 5 0 0 0 speed - - 0;
#X obj 111 829 hradio 19 1 0 128 empty empty empty 0 -10 0 12 #c6feff #000000 #000000 0;
#X obj 116 150 tgl 19 0 empty empty CLICK\ TO\ START 0 -10 0 20 #ff0400 #000000 #000000 0 1;
#X obj 671 466 mtof;
#N canvas 234 234 450 250 (subpatch) 0;
#X array bell 16 float 3;
#A 0 69 0 0 0 0 0 0 0 69 0 0 0 0 0 0 0;
#X coords 0 70 16 -5 200 140 1 0 0;
#X restore 130 334 graph;
#X obj 1095 522 array set bell;
#X floatatom 441 43 5 0 0 0 speed - - 0;
#X obj 119 273 hradio 19 1 0 16 empty empty empty 0 -10 0 12 #feffc6 #000000 #000000 0;
#X obj 476 -73 mtof;
#N canvas 1041 351 472 376 counter_bell 0;
#X obj 81 51 inlet toggle;
#X obj 86 190 metro 144;
#X obj 197 84 sel 0;
#X msg 206 115 0;
#X obj 250 131 inlet speed;
#X obj 93 248 f, f 8;
#X obj 287 249 + 1;
#X obj 102 326 outlet cnt;
#X floatatom 115 121 5 0 0 0 - - - 0;
#X obj 100 287 % 16;
#X connect 0 0 1 0;
#X connect 0 0 2 0;
#X connect 1 0 5 0;
#X connect 2 0 3 0;
#X connect 3 0 5 1;
#X connect 4 0 1 1;
#X connect 5 0 6 0;
#X connect 5 0 9 0;
#X connect 6 0 5 1;
#X connect 9 0 7 0;
#X connect 9 0 8 0;
#X coords 0 376 1 375 85 60 0;
#X restore 291 57 pd counter_bell;
#X obj 396 11 array get bell;
#X obj 520 133 vsl 19 162 72 144 0 0 empty empty define\ speed 0 -9 0 12 #ffe3c6 #000000 #000000 0 1;
#X obj 119 242 bng 19 250 50 0 empty empty empty 0 -10 0 12 #ff0400 #000000 #000000;
#X text 109 217 Reset to original;
#X text 117 297 Draw the bell beat loop;
#X obj 116 191 bng 19 250 50 0 empty empty Mute\ Main 0 -10 0 12 #ff0400 #000000 #000000;
#X msg 550 38 144, f 8;
#N canvas 1887 549 1920 997 enco_bell 0;
#X obj 445 293 *~;
#X obj 467 244 vline~;
#X obj 701 282 *~ 1;
#X obj 771 587 delwrite~ A 1000;
#X obj 906 587 delwrite~ B 1000;
#X obj 1133 586 delwrite~ D 1000;
#X obj 1020 587 delwrite~ C 1000;
#X obj 760 255 delread~ A 101;
#X obj 894 255 delread~ B 143;
#X obj 1014 255 delread~ C 165;
#X obj 1154 254 delread~ D 177;
#X obj 763 312 +~;
#X obj 893 314 +~;
#X obj 1013 410 +~;
#X obj 1157 404 -~;
#X obj 762 417 +~;
#X obj 889 415 -~;
#X obj 894 512 +~;
#X obj 1166 511 -~;
#X obj 771 515 +~;
#X obj 1015 511 -~;
#X obj 769 554 *~ 0.4;
#X obj 909 555 *~ 0.37;
#X obj 1018 554 *~ 0.333;
#X obj 1134 556 *~ 0.3;
#X obj 496 361 *~ 0.2;
#X msg 449 167 1 15 \, 0 300 20;
#X obj 523 488 outlet~;
#X obj 472 94 inlet;
#X obj 318 132 osc~;
#X obj 318 49 inlet~;
#X connect 0 0 25 0;
#X connect 1 0 0 1;
#X connect 2 0 11 0;
#X connect 2 0 12 0;
#X connect 7 0 11 1;
#X connect 8 0 12 1;
#X connect 9 0 13 0;
#X connect 9 0 14 0;
#X connect 10 0 14 1;
#X connect 10 0 13 1;
#X connect 11 0 15 1;
#X connect 11 0 16 0;
#X connect 11 0 27 0;
#X connect 12 0 16 1;
#X connect 12 0 15 0;
#X connect 12 0 27 0;
#X connect 13 0 20 1;
#X connect 13 0 19 1;
#X connect 14 0 18 1;
#X connect 14 0 17 1;
#X connect 15 0 19 0;
#X connect 15 0 20 0;
#X connect 16 0 17 0;
#X connect 16 0 18 0;
#X connect 17 0 22 0;
#X connect 18 0 24 0;
#X connect 19 0 21 0;
#X connect 20 0 23 0;
#X connect 21 0 3 0;
#X connect 22 0 4 0;
#X connect 23 0 6 0;
#X connect 24 0 5 0;
#X connect 25 0 2 0;
#X connect 25 0 27 0;
#X connect 26 0 1 0;
#X connect 28 0 26 0;
#X connect 29 0 0 0;
#X connect 30 0 29 0;
#X restore 172 704 pd enco_bell;
#X floatatom 363 518 5 0 0 0 speed - - 0;
#X obj 100 873 hradio 19 1 0 124 empty empty set\ 124 0 -10 0 12 #feffc6 #000000 #000000 0;
#X obj 200 627 mtof;
#N canvas 1041 351 472 376 counter_bell 0;
#X obj 81 51 inlet toggle;
#X obj 86 190 metro 144;
#X obj 197 84 sel 0;
#X msg 206 115 0;
#X obj 250 131 inlet speed;
#X obj 93 248 f, f 8;
#X obj 287 249 + 1;
#X obj 102 326 outlet cnt;
#X floatatom 115 121 5 0 0 0 - - - 0;
#X obj 119 290 % 124;
#X connect 0 0 1 0;
#X connect 0 0 2 0;
#X connect 1 0 5 0;
#X connect 2 0 3 0;
#X connect 3 0 5 1;
#X connect 4 0 1 1;
#X connect 5 0 6 0;
#X connect 5 0 9 0;
#X connect 6 0 5 1;
#X connect 9 0 7 0;
#X connect 9 0 8 0;
#X coords 0 376 1 375 85 60 0;
#X restore 102 485 pd counter_bell;
#X obj 1148 258 array set empty_fill;
#X obj 219 605 array get empty_fill;
#N canvas 52 52 450 250 (subpatch) 0;
#X array empty_fill 124 float 3;
#A 0 79 79 79 79 79 79 79 79 79 79 79 77 77 77 76 76 74 74 74 74 74 74 74 74 76 76 77 76 76 76 74 74 72 72 72 72 72 72 69 71 72 72 76 74 74 74 72 72 74 74 74 74 74 74 74 74 72 72 74 74 76 76 77 77 79 79 79 79 79 79 79 79 79 79 81 77 77 77 76 76 74 74 74 74 74 74 74 74 76 76 79 74 74 74 72 72 72 72 72 72 72 72 69 71 72 72 76 74 74 74 72 72 74 74 74 74 74 74 74 74 74 74 74 74;
#X coords 0 90 124 50 200 140 1 0 0;
#X restore 314 578 graph;
#X obj 202 555 vsl 19 162 0.35 1 0 0 empty empty tone 0 -9 0 12 #9c00ff #000000 #000000 0 1;
#X floatatom 190 726 5 0 0 0 - - - 0;
#X obj 204 945 *~;
#N canvas -523 149 1920 997 empty_fill_volum_control 0;
#X obj 221 445 *~ 0.1;
#X obj 268 340 / 127, f 7;
#X floatatom 110 306 5 0 0 3 volume - - 0;
#X obj 119 128 vsl 19 162 0 127 0 0 empty empty empty 0 -9 0 12 #c6ffc7 #000000 #000000 0 1;
#X obj 296 533 outlet~;
#X obj 45 389 inlet~;
#X msg 252 243 0, f 4;
#X obj 155 137 bng 19 250 50 0 empty empty mute 0 -10 0 12 #ff0400 #000000 #000000;
#X connect 0 0 4 0;
#X connect 1 0 0 1;
#X connect 1 0 2 0;
#X connect 3 0 1 0;
#X connect 5 0 0 0;
#X connect 6 0 1 0;
#X connect 7 0 6 0;
#X coords 0 -1 1 1 85 250 1 100 100;
#X restore 112 518 pd empty_fill_volum_control;
#N canvas -243 149 1920 997 bell_volum_control 0;
#X obj 221 445 *~ 0.1;
#X obj 268 340 / 127, f 7;
#X floatatom 110 306 5 0 0 3 volume - - 0;
#X obj 119 128 vsl 19 162 0 127 0 0 empty empty empty 0 -9 0 12 #c6ffc7 #000000 #000000 0 1;
#X obj 296 533 outlet~;
#X obj 45 389 inlet~;
#X msg 252 243 0, f 4;
#X obj 155 137 bng 19 250 50 0 empty empty mute 0 -10 0 12 #ff0400 #000000 #000000;
#X connect 0 0 4 0;
#X connect 1 0 0 1;
#X connect 1 0 2 0;
#X connect 3 0 1 0;
#X connect 5 0 0 0;
#X connect 6 0 1 0;
#X connect 7 0 6 0;
#X coords 0 -1 1 1 85 250 1 100 100;
#X restore 353 243 pd bell_volum_control;
#X obj 200 190 bng 19 250 50 0 empty empty Default\ speed 0 -10 0 12 #ff0400 #000000 #000000;
#X obj 772 119 vsl 19 162 400 1000 0 0 empty empty DJ\ DISK 0 -9 0 12 #9c00ff #000000 #000000 0 1;
#X obj 761 329 osc~;
#X floatatom 770 298 5 0 0 0 - - - 0;
#X obj 800 367 *~;
#X msg 832 300 0;
#X obj 816 264 bng 19 250 50 0 empty empty off 0 -10 0 12 #ff0400 #000000 #000000;
#X obj 817 223 bng 19 250 50 0 empty empty ON 0 -10 0 12 #ff0400 #000000 #000000;
#X msg 930 309 0.005;
#X msg 1165 -38 72 72 71 71 69 69 67 64 64 64 64 64 62 62 60 60 62 62 67 67 67 67 64 64 64 64 64 64 69 69 71 71 72 72 71 71 69 69 67 64 64 64 64 64 62 62 60 60 62 62 60 60 60 60 60 60 60 60 60 60 69 69 71 71 72 72 71 71 69 69 67 64 64 64 64 64 62 62 60 60 62 62 67 67 67 67 64 64 64 64 64 64 62 62 60 60 62 62 67 67 67 67 64 64 64 64 64 64 62 62 60 60 62 62 60 60 60 60 60 60 60 60 60 60 60 60 60 60;
#X msg 1094 458 69 0 0 0 0 0 0 0 69 0 0 0 0 0 0 0;
#X msg 1154 130 79 79 79 79 79 79 79 79 79 79 79 77 77 77 76 76 74 74 74 74 74 74 74 74 76 76 77 76 76 76 74 74 72 72 72 72 72 72 69 71 72 72 76 74 74 74 72 72 74 74 74 74 74 74 74 74 72 72 74 74 76 76 77 77 79 79 79 79 79 79 79 79 79 79 81 77 77 77 76 76 74 74 74 74 74 74 74 74 76 76 79 74 74 74 72 72 72 72 72 72 72 72 69 71 72 72 76 74 74 74 72 72 74 74 74 74 74 74 74 74 74 74 74 74, f 50;
#X msg 1048 -234 0 0 0 0 0 0 0 0 0 0 0 0 0 0 0 0 0 0 0 0 0 0 0 0 0 0 0 0 0 0 0 0 0 0 0 0 0 0 0 0 0 0 0 0 0 0 0 0 0 0 0 0 0 0 0 0 0 0 0 0 0 0 0 0 0 0 0 0 0 0 0 0 0 0 0 0 0 0 0 0 0 0 0 0 0 0 0 0 0 0 0 0 0 0 0 0 0 0 0 0 0 0 0 0 0 0 0 0 0 0 0 0 0 0 0 0 0 0 0 0 0 0 0 0 0 0 0 0 0 0 0 0 0 0 0 0 0 0 0 0 0 0 0 0 0 0 0 0 0 0 0 0 0 0 0 0 0 0 0 0 0 0 0 0 0 0 0 0 0 0 0 0 0 0 0 0 0 0 0 0 0 0 0 0 0 0 0 0 0 0 0 0 0 0 0 0 0 0 0 0 0 0 0 0 0 0 0 0 0 0 0 0 0 0 0 0 0 0 0 0 0 0 0 0 0 0 0 0 0 0 0 0 0 0 0 0 0 0 0 0, f 52;
#X connect 1 0 0 0;
#X connect 1 0 0 1;
#X connect 2 0 36 0;
#X connect 5 0 10 0;
#X connect 6 0 8 0;
#X connect 7 0 6 1;
#X connect 8 0 5 0;
#X connect 9 0 6 0;
#X connect 9 0 16 0;
#X connect 9 0 28 0;
#X connect 10 0 1 0;
#X connect 13 0 16 1;
#X connect 14 0 17 0;
#X connect 15 0 2 0;
#X connect 15 0 2 1;
#X connect 16 0 14 0;
#X connect 17 0 15 0;
#X connect 18 0 13 0;
#X connect 18 0 7 0;
#X connect 18 0 25 0;
#X connect 19 0 46 0;
#X connect 19 0 47 0;
#X connect 19 0 48 0;
#X connect 22 0 49 0;
#X connect 23 0 7 0;
#X connect 23 0 13 0;
#X connect 24 0 35 0;
#X connect 25 0 28 1;
#X connect 26 0 30 0;
#X connect 27 0 24 1;
#X connect 27 0 34 0;
#X connect 28 0 26 0;
#X connect 30 0 27 0;
#X connect 32 0 33 0;
#X connect 32 0 34 1;
#X connect 34 0 24 0;
#X connect 35 0 0 0;
#X connect 35 0 0 1;
#X connect 36 0 0 0;
#X connect 36 0 0 1;
#X connect 37 0 23 0;
#X connect 38 0 39 0;
#X connect 38 0 40 0;
#X connect 39 0 41 0;
#X connect 41 0 0 0;
#X connect 41 0 0 1;
#X connect 42 0 41 1;
#X connect 43 0 42 0;
#X connect 44 0 45 0;
#X connect 45 0 41 1;
#X connect 46 0 4 0;
#X connect 47 0 12 0;
#X connect 48 0 29 0;
#X connect 49 0 4 0;
#X coords 0 -1 1 1 1000 800 1 100 100;
#X restore 48 59 pd main_melody;
#X text 299 68 272-336 592-720 848-1040 1288-1424;
