#N canvas 1489 0 3000 1836 12;
#N canvas 1489 0 1496 1821 controller 0;
#X restore 45 42 pd controller;
#N canvas 0 22 450 278 (subpatch) 0;
#X array wave1 4.456e+06 float 2;
#X coords 0 1 4.456e+06 -1 200 140 1;
#X restore 409 308 graph;
#X obj 92 216 soundfiler;
#X obj 93 166 bng 19 250 50 0 empty empty empty 0 -10 0 12 #fcfcfc #000000 #000000;
#N canvas 0 22 450 278 (subpatch) 0;
#X array array2 2.92454e+06 float 2;
#X coords 0 1 2.92454e+06 -1 200 140 1 0 0;
#X restore 1199 85 graph;
#X obj 945 124 soundfiler;
#X obj 946 74 bng 19 250 50 0 empty empty empty 0 -10 0 12 #fcfcfc #000000 #000000;
#X floatatom 945 148 11 0 0 0 - - - 0;
#X floatatom 961 376 5 0 200000 0 - - - 0;
#X obj 961 408 t f f;
#X obj 965 491 pack f f f;
#X obj 964 571 vline~;
#X obj 961 654 *~;
#X obj 962 690 dac~;
#X obj 1104 399 t b f;
#X obj 996 450 +;
#X obj 1065 445 / 1;
#X obj 962 326 bng 19 250 50 0 empty empty empty 0 -10 0 12 #fcfcfc #000000 #000000;
#X obj 909 481 vsl 19 162 0 5 0 0 empty empty empty 0 -9 0 12 #00faff #000000 #000000 0 1;
#X obj 1164 591 *~ 88200;
#X obj 1164 569 phasor~ 0.5;
#X obj 1158 371 vsl 15 128 0 127 0 0 empty empty empty 0 -9 0 10 #fcfcfc #000000 #000000 0 1;
#X floatatom 1164 543 5 0 0 0 - - - 0;
#X obj 1164 520 / 100;
#X obj 1246 543 osc~ 0.2;
#X obj 1163 622 +~ 200000;
#X msg 964 528 \$1 \, \$2 \$3;
#X msg 948 101 read -resize birdsong.wav array2;
#X obj 963 608 tabread4~ array2;
#X obj 1024 404 * 1000;
#X obj 1044 186 vsl 19 162 0 20000 0 0 empty empty empty 0 -9 0 12 #faff00 #000000 #000000 0 1;
#X obj 1104 190 vsl 19 162 0 2 0 0 empty empty empty 0 -9 0 12 #00ff04 #000000 #000000 0 1;
#X floatatom 1025 377 5 0 0 0 - - - 0;
#X floatatom 1105 374 5 0 0 0 - - - 0;
#X obj 49 389 bng 15 250 50 0 empty empty empty 17 7 0 10 #fcfcfc #000000 #000000;
#X msg 94 192 read -resize waves.wav wave1 wave2;
#N canvas 0 22 450 240 (subpatch) 0;
#X array wave2 4.456e+06 float 2;
#X coords 0 1 4.456e+06 -1 200 140 1 0 0;
#X restore 407 482 graph;
#X obj 69 468 tabplay~ wave1;
#X obj 162 534 *~;
#X obj 161 566 dac~;
#X msg 100 388 stop;
#X floatatom 92 245 10 0 0 0 - - - 0;
#X obj 218 455 tabplay~ wave2;
#X obj 218 531 *~;
#X obj 341 255 vsl 19 162 0 3 0 0 empty empty empty 0 -9 0 12 #00ff04 #000000 #000000 0 1;
#X floatatom 334 457 5 0 0 0 - - - 0;
#X connect 2 0 41 0;
#X connect 3 0 35 0;
#X connect 5 0 7 0;
#X connect 6 0 27 0;
#X connect 8 0 9 0;
#X connect 9 0 10 0;
#X connect 9 1 15 0;
#X connect 10 0 26 0;
#X connect 11 0 28 0;
#X connect 12 0 13 0;
#X connect 12 0 13 1;
#X connect 14 0 16 0;
#X connect 14 1 16 1;
#X connect 15 0 10 1;
#X connect 16 0 10 2;
#X connect 17 0 8 0;
#X connect 18 0 12 1;
#X connect 19 0 25 0;
#X connect 20 0 19 0;
#X connect 21 0 23 0;
#X connect 22 0 20 0;
#X connect 22 0 24 0;
#X connect 23 0 22 0;
#X connect 25 0 28 0;
#X connect 26 0 11 0;
#X connect 27 0 5 0;
#X connect 28 0 12 0;
#X connect 29 0 15 1;
#X connect 30 0 32 0;
#X connect 31 0 33 0;
#X connect 32 0 29 0;
#X connect 32 0 16 0;
#X connect 33 0 14 0;
#X connect 34 0 37 0;
#X connect 34 0 42 0;
#X connect 35 0 2 0;
#X connect 37 0 38 0;
#X connect 38 0 39 0;
#X connect 40 0 37 0;
#X connect 40 0 42 0;
#X connect 42 0 43 0;
#X connect 43 0 39 1;
#X connect 44 0 45 0;
#X connect 45 0 38 1;
#X connect 45 0 43 1;
#X coords 0 0 0.125 0.125 0 0 0;
