#N canvas 302 177 1920 966 12;
#X obj 202 78 tgl 50 0 empty empty empty 0 -10 0 12 #9c00ff #000000 #000000 0 1;
#X text 101 42 piano1;
#X text 207 46 piano2;
#X obj 94 83 tgl 50 0 empty empty empty 0 -10 0 12 #0400ff #000000 #000000 0 1;
#X obj 295 80 tgl 50 0 empty empty empty 0 -10 0 12 #00faff #000000 #000000 0 1;
#X text 304 44 ？？？;
#X obj 195 170 send piano2;
#X obj 84 169 send piano1;
#X obj 44 104 tgl 19 0 empty empty empty 0 -10 0 12 #fcfcfc #000000 #000000 0 1;
#X text 32 85 allstart;
#X obj 134 216 tgl 50 0 empty empty empty 0 -10 0 12 #00ff04 #000000 #000000 0 1;
#X obj 130 312 send dram;
#X text 143 180 dram;
#X obj 291 176 send ？？？;
#X obj 257 213 tgl 50 0 empty empty empty 0 -10 0 12 #ff0400 #000000 #000000 0 1;
#X text 262 190 violin;
#X obj 253 309 send violin;
#X connect 0 0 6 0;
#X connect 3 0 7 0;
#X connect 4 0 13 0;
#X connect 8 0 3 0;
#X connect 8 0 0 0;
#X connect 8 0 4 0;
#X connect 8 0 10 0;
#X connect 8 0 14 0;
#X connect 10 0 11 0;
#X connect 14 0 16 0;
