#N canvas 81 1024 1920 966 12;
#X obj 318 -12 loadbang;
#X floatatom 382 50 5 0 0 0 - - - 0;
#X obj 263 144 metro;
#X obj 281 59 tgl 30 0 empty empty empty 0 -10 0 12 #fcfcfc #000000 #000000 0 1;
#X obj 206 101 sel 0;
#X obj 210 166 bng 19 250 50 0 empty empty empty 0 -10 0 12 #fcfcfc #000000 #000000;
#X obj 82 105 loadbang;
#X msg 210 203 -1;
#X obj 286 201 int 1;
#X obj 275 172 bng 19 250 50 0 empty empty empty 0 -10 0 12 #fcfcfc #000000 #000000;
#X obj 435 207 + 1;
#X floatatom 275 272 5 0 0 0 - - - 0;
#X obj 295 352 + 1;
#X floatatom 294 386 5 0 0 0 - - - 0;
#X obj 17 426 sel 1;
#X obj 65 427 sel 2;
#X obj 116 428 sel 3;
#X obj 169 428 sel 4;
#X obj 222 432 sel 5;
#X obj 271 435 sel 6;
#X obj 352 436 sel 7;
#X obj 405 436 sel 8;
#X obj 20 471 bng 19 250 50 0 empty empty empty 0 -10 0 12 #fcfcfc #000000 #000000;
#X obj 69 474 bng 19 250 50 0 empty empty empty 0 -10 0 12 #fcfcfc #000000 #000000;
#X obj 121 479 bng 19 250 50 0 empty empty empty 0 -10 0 12 #fcfcfc #000000 #000000;
#X obj 171 475 bng 19 250 50 0 empty empty empty 0 -10 0 12 #fcfcfc #000000 #000000;
#X obj 224 475 bng 19 250 50 0 empty empty empty 0 -10 0 12 #fcfcfc #000000 #000000;
#X obj 264 480 bng 19 250 50 0 empty empty empty 0 -10 0 12 #fcfcfc #000000 #000000;
#X obj 350 485 bng 19 250 50 0 empty empty empty 0 -10 0 12 #fcfcfc #000000 #000000;
#X obj 405 488 bng 19 250 50 0 empty empty empty 0 -10 0 12 #fcfcfc #000000 #000000;
#X obj -6 506 s One;
#X obj 49 521 s Two;
#X obj 94 520 s Three;
#X obj 154 521 s Four;
#X obj 207 526 s Five;
#X obj 265 523 s Six;
#X obj 351 527 s Seven;
#X obj 422 524 s Eight;
#X obj 147 642 bng 19 250 50 0 empty empty empty 0 -10 0 12 #fcfcfc #000000 #000000;
#X obj 237 652 bng 19 250 50 0 empty empty empty 0 -10 0 12 #fcfcfc #000000 #000000;
#X obj 329 654 bng 19 250 50 0 empty empty empty 0 -10 0 12 #fcfcfc #000000 #000000;
#X obj 427 650 bng 19 250 50 0 empty empty empty 0 -10 0 12 #fcfcfc #000000 #000000;
#X obj 521 652 bng 19 250 50 0 empty empty empty 0 -10 0 12 #fcfcfc #000000 #000000;
#X obj 621 649 bng 19 250 50 0 empty empty empty 0 -10 0 12 #fcfcfc #000000 #000000;
#X obj 722 654 bng 19 250 50 0 empty empty empty 0 -10 0 12 #fcfcfc #000000 #000000;
#X obj 834 664 bng 19 250 50 0 empty empty empty 0 -10 0 12 #fcfcfc #000000 #000000;
#X obj 145 690 spigot;
#X obj 239 691 spigot;
#X obj 329 692 spigot;
#X obj 424 694 spigot;
#X obj 527 698 spigot;
#X obj 627 699 spigot;
#X obj 721 704 spigot;
#X obj 838 704 spigot;
#X obj 179 646 tgl 19 0 empty empty empty 0 -10 0 12 #fcfcfc #000000 #000000 0 1;
#X obj 283 649 tgl 19 0 empty empty empty 0 -10 0 12 #fcfcfc #000000 #000000 0 1;
#X obj 364 655 tgl 19 0 empty empty empty 0 -10 0 12 #fcfcfc #000000 #000000 0 1;
#X obj 459 653 tgl 19 0 empty empty empty 0 -10 0 12 #fcfcfc #000000 #000000 0 1;
#X obj 566 649 tgl 19 0 empty empty empty 0 -10 0 12 #fcfcfc #000000 #000000 0 1;
#X obj 663 650 tgl 19 0 empty empty empty 0 -10 0 12 #fcfcfc #000000 #000000 0 1;
#X obj 760 656 tgl 19 0 empty empty empty 0 -10 0 12 #fcfcfc #000000 #000000 0 1;
#X obj 871 658 tgl 19 0 empty empty empty 0 -10 0 12 #fcfcfc #000000 #000000 0 1;
#X obj 667 1072 bng 19 250 50 0 empty empty empty 0 -10 0 12 #fcfcfc #000000 #000000;
#X obj 664 1136 readsf~;
#X obj 663 1167 *~ 0.5;
#X obj 142 739 bng 19 250 50 0 empty empty empty 0 -10 0 12 #fcfcfc #000000 #000000;
#X obj 248 737 bng 19 250 50 0 empty empty empty 0 -10 0 12 #fcfcfc #000000 #000000;
#X obj 328 729 bng 19 250 50 0 empty empty empty 0 -10 0 12 #fcfcfc #000000 #000000;
#X obj 422 739 bng 19 250 50 0 empty empty empty 0 -10 0 12 #fcfcfc #000000 #000000;
#X obj 525 739 bng 19 250 50 0 empty empty empty 0 -10 0 12 #fcfcfc #000000 #000000;
#X obj 628 741 bng 19 250 50 0 empty empty empty 0 -10 0 12 #fcfcfc #000000 #000000;
#X obj 724 747 bng 19 250 50 0 empty empty empty 0 -10 0 12 #fcfcfc #000000 #000000;
#X obj 840 746 bng 19 250 50 0 empty empty empty 0 -10 0 12 #fcfcfc #000000 #000000;
#X obj 523 1072 bng 19 250 50 0 empty empty empty 0 -10 0 12 #fcfcfc #000000 #000000;
#X obj 520 1136 readsf~;
#X obj 519 1167 *~ 0.5;
#X obj 369 1067 bng 19 250 50 0 empty empty empty 0 -10 0 12 #fcfcfc #000000 #000000;
#X obj 366 1131 readsf~;
#X obj 365 1162 *~ 0.5;
#X obj 412 796 send drum;
#X obj 368 1039 receive drum;
#X obj 522 1044 receive snape;
#X msg 523 1101 open snape.wav \, 1;
#X obj 666 1044 receive clap;
#X msg 667 1101 open hat.wav \, 1;
#X obj 282 321 %;
#X msg 367 302 16;
#X obj 494 477 bng 19 250 50 0 empty empty empty 0 -10 0 12 #fcfcfc #000000 #000000;
#X obj 543 480 bng 19 250 50 0 empty empty empty 0 -10 0 12 #fcfcfc #000000 #000000;
#X obj 595 485 bng 19 250 50 0 empty empty empty 0 -10 0 12 #fcfcfc #000000 #000000;
#X obj 645 481 bng 19 250 50 0 empty empty empty 0 -10 0 12 #fcfcfc #000000 #000000;
#X obj 698 481 bng 19 250 50 0 empty empty empty 0 -10 0 12 #fcfcfc #000000 #000000;
#X obj 738 486 bng 19 250 50 0 empty empty empty 0 -10 0 12 #fcfcfc #000000 #000000;
#X obj 824 491 bng 19 250 50 0 empty empty empty 0 -10 0 12 #fcfcfc #000000 #000000;
#X obj 903 488 bng 19 250 50 0 empty empty empty 0 -10 0 12 #fcfcfc #000000 #000000;
#X obj 484 518 s Nine;
#X obj 571 532 s Ten;
#X obj 616 531 s Eleven;
#X obj 676 532 s Twe;
#X obj 729 537 s Thret;
#X obj 787 534 s Fort;
#X obj 853 537 s Fift;
#X obj 924 534 s Sixt;
#X obj 1088 127 receive One;
#X obj 1183 126 receive Two;
#X obj 1274 127 receive Three;
#X obj 1376 126 receive Four;
#X obj 1470 127 receive Five;
#X obj 1566 127 receive Six;
#X obj 1669 128 receive Seven;
#X obj 1774 131 receive Eight;
#X obj 1091 162 bng 19 250 50 0 empty empty empty 0 -10 0 12 #fcfcfc #000000 #000000;
#X obj 1181 172 bng 19 250 50 0 empty empty empty 0 -10 0 12 #fcfcfc #000000 #000000;
#X obj 1273 174 bng 19 250 50 0 empty empty empty 0 -10 0 12 #fcfcfc #000000 #000000;
#X obj 1371 170 bng 19 250 50 0 empty empty empty 0 -10 0 12 #fcfcfc #000000 #000000;
#X obj 1465 172 bng 19 250 50 0 empty empty empty 0 -10 0 12 #fcfcfc #000000 #000000;
#X obj 1565 169 bng 19 250 50 0 empty empty empty 0 -10 0 12 #fcfcfc #000000 #000000;
#X obj 1666 174 bng 19 250 50 0 empty empty empty 0 -10 0 12 #fcfcfc #000000 #000000;
#X obj 1778 184 bng 19 250 50 0 empty empty empty 0 -10 0 12 #fcfcfc #000000 #000000;
#X obj 1089 210 spigot;
#X obj 1183 211 spigot;
#X obj 1273 212 spigot;
#X obj 1368 214 spigot;
#X obj 1471 218 spigot;
#X obj 1571 219 spigot;
#X obj 1665 224 spigot;
#X obj 1782 224 spigot;
#X obj 1123 166 tgl 19 0 empty empty empty 0 -10 0 12 #fcfcfc #000000 #000000 0 1;
#X obj 1227 169 tgl 19 0 empty empty empty 0 -10 0 12 #fcfcfc #000000 #000000 0 1;
#X obj 1308 175 tgl 19 0 empty empty empty 0 -10 0 12 #fcfcfc #000000 #000000 0 1;
#X obj 1403 173 tgl 19 0 empty empty empty 0 -10 0 12 #fcfcfc #000000 #000000 0 1;
#X obj 1510 169 tgl 19 0 empty empty empty 0 -10 0 12 #fcfcfc #000000 #000000 0 1;
#X obj 1607 170 tgl 19 0 empty empty empty 0 -10 0 12 #fcfcfc #000000 #000000 0 1;
#X obj 1704 176 tgl 19 0 empty empty empty 0 -10 0 12 #fcfcfc #000000 #000000 0 1;
#X obj 1086 259 bng 19 250 50 0 empty empty empty 0 -10 0 12 #fcfcfc #000000 #000000;
#X obj 1192 257 bng 19 250 50 0 empty empty empty 0 -10 0 12 #fcfcfc #000000 #000000;
#X obj 1272 249 bng 19 250 50 0 empty empty empty 0 -10 0 12 #fcfcfc #000000 #000000;
#X obj 1366 259 bng 19 250 50 0 empty empty empty 0 -10 0 12 #fcfcfc #000000 #000000;
#X obj 1469 259 bng 19 250 50 0 empty empty empty 0 -10 0 12 #fcfcfc #000000 #000000;
#X obj 1572 261 bng 19 250 50 0 empty empty empty 0 -10 0 12 #fcfcfc #000000 #000000;
#X obj 1668 267 bng 19 250 50 0 empty empty empty 0 -10 0 12 #fcfcfc #000000 #000000;
#X obj 1784 266 bng 19 250 50 0 empty empty empty 0 -10 0 12 #fcfcfc #000000 #000000;
#X obj 1030 657 receive One;
#X obj 1125 656 receive Two;
#X obj 1216 657 receive Three;
#X obj 1318 656 receive Four;
#X obj 1412 657 receive Five;
#X obj 1508 657 receive Six;
#X obj 1611 658 receive Seven;
#X obj 1716 661 receive Eight;
#X obj 1033 692 bng 19 250 50 0 empty empty empty 0 -10 0 12 #fcfcfc #000000 #000000;
#X obj 1123 702 bng 19 250 50 0 empty empty empty 0 -10 0 12 #fcfcfc #000000 #000000;
#X obj 1215 704 bng 19 250 50 0 empty empty empty 0 -10 0 12 #fcfcfc #000000 #000000;
#X obj 1313 700 bng 19 250 50 0 empty empty empty 0 -10 0 12 #fcfcfc #000000 #000000;
#X obj 1407 702 bng 19 250 50 0 empty empty empty 0 -10 0 12 #fcfcfc #000000 #000000;
#X obj 1507 699 bng 19 250 50 0 empty empty empty 0 -10 0 12 #fcfcfc #000000 #000000;
#X obj 1608 704 bng 19 250 50 0 empty empty empty 0 -10 0 12 #fcfcfc #000000 #000000;
#X obj 1720 714 bng 19 250 50 0 empty empty empty 0 -10 0 12 #fcfcfc #000000 #000000;
#X obj 1031 740 spigot;
#X obj 1125 741 spigot;
#X obj 1215 742 spigot;
#X obj 1310 744 spigot;
#X obj 1413 748 spigot;
#X obj 1513 749 spigot;
#X obj 1607 754 spigot;
#X obj 1724 754 spigot;
#X obj 1065 696 tgl 19 0 empty empty empty 0 -10 0 12 #fcfcfc #000000 #000000 0 1;
#X obj 1169 699 tgl 19 0 empty empty empty 0 -10 0 12 #fcfcfc #000000 #000000 0 1;
#X obj 1250 705 tgl 19 0 empty empty empty 0 -10 0 12 #fcfcfc #000000 #000000 0 1;
#X obj 1345 703 tgl 19 0 empty empty empty 0 -10 0 12 #fcfcfc #000000 #000000 0 1;
#X obj 1452 699 tgl 19 0 empty empty empty 0 -10 0 12 #fcfcfc #000000 #000000 0 1;
#X obj 1549 700 tgl 19 0 empty empty empty 0 -10 0 12 #fcfcfc #000000 #000000 0 1;
#X obj 1646 706 tgl 19 0 empty empty empty 0 -10 0 12 #fcfcfc #000000 #000000 0 1;
#X obj 1757 708 tgl 19 0 empty empty empty 0 -10 0 12 #fcfcfc #000000 #000000 0 1;
#X obj 1028 789 bng 19 250 50 0 empty empty empty 0 -10 0 12 #fcfcfc #000000 #000000;
#X obj 1134 787 bng 19 250 50 0 empty empty empty 0 -10 0 12 #fcfcfc #000000 #000000;
#X obj 1214 779 bng 19 250 50 0 empty empty empty 0 -10 0 12 #fcfcfc #000000 #000000;
#X obj 1308 789 bng 19 250 50 0 empty empty empty 0 -10 0 12 #fcfcfc #000000 #000000;
#X obj 1411 789 bng 19 250 50 0 empty empty empty 0 -10 0 12 #fcfcfc #000000 #000000;
#X obj 1514 791 bng 19 250 50 0 empty empty empty 0 -10 0 12 #fcfcfc #000000 #000000;
#X obj 1610 797 bng 19 250 50 0 empty empty empty 0 -10 0 12 #fcfcfc #000000 #000000;
#X obj 1726 796 bng 19 250 50 0 empty empty empty 0 -10 0 12 #fcfcfc #000000 #000000;
#X obj 1356 316 send snape;
#X obj 1298 846 send clap;
#X obj 487 437 sel 9;
#X obj 535 438 sel 10;
#X obj 586 439 sel 11;
#X obj 639 439 sel 12;
#X obj 692 443 sel 13;
#X obj 741 446 sel 14;
#X obj 822 447 sel 15;
#X obj 875 447 sel 16;
#X text 1119 1190 reference: www.youtube.com. (n.d.). How to Create a Sequencer in Pure Data! [online] Available at: https://www.youtube.com/watch?v=8Nzaswa5C7g [Accessed 5 Mar. 2023]. ‌;
#X text 652 256 The idea of controller is from the video on youtube: How to Create a Sequencer in Pure Data!;
#X text 455 235 comment;
#X msg 369 1096 open drum1.wav \, 1;
#X obj 1827 182 tgl 19 0 empty empty empty 0 -10 0 12 #fcfcfc #000000 #000000 0 1;
#X obj 144 607 receive One;
#X obj 239 606 receive Two;
#X obj 330 607 receive Three;
#X obj 432 606 receive Four;
#X obj 526 607 receive Five;
#X obj 622 607 receive Six;
#X obj 725 608 receive Seven;
#X obj 830 611 receive Eight;
#X obj 116 1003 receive Nine;
#X obj 211 1002 receive Ten;
#X obj 296 1001 receive Eleven;
#X obj 410 997 receive Twe;
#X obj 506 996 receive Thret;
#X obj 608 1000 receive Fort;
#X obj 710 1000 receive Fift;
#X obj 812 1001 receive Sixt;
#X obj 150 842 bng 19 250 50 0 empty empty empty 0 -10 0 12 #fcfcfc #000000 #000000;
#X obj 240 852 bng 19 250 50 0 empty empty empty 0 -10 0 12 #fcfcfc #000000 #000000;
#X obj 332 854 bng 19 250 50 0 empty empty empty 0 -10 0 12 #fcfcfc #000000 #000000;
#X obj 430 850 bng 19 250 50 0 empty empty empty 0 -10 0 12 #fcfcfc #000000 #000000;
#X obj 524 852 bng 19 250 50 0 empty empty empty 0 -10 0 12 #fcfcfc #000000 #000000;
#X obj 624 849 bng 19 250 50 0 empty empty empty 0 -10 0 12 #fcfcfc #000000 #000000;
#X obj 725 854 bng 19 250 50 0 empty empty empty 0 -10 0 12 #fcfcfc #000000 #000000;
#X obj 837 864 bng 19 250 50 0 empty empty empty 0 -10 0 12 #fcfcfc #000000 #000000;
#X obj 148 890 spigot;
#X obj 242 891 spigot;
#X obj 332 892 spigot;
#X obj 427 894 spigot;
#X obj 530 898 spigot;
#X obj 630 899 spigot;
#X obj 724 904 spigot;
#X obj 841 904 spigot;
#X obj 182 846 tgl 19 0 empty empty empty 0 -10 0 12 #fcfcfc #000000 #000000 0 1;
#X obj 286 849 tgl 19 0 empty empty empty 0 -10 0 12 #fcfcfc #000000 #000000 0 1;
#X obj 367 855 tgl 19 0 empty empty empty 0 -10 0 12 #fcfcfc #000000 #000000 0 1;
#X obj 462 853 tgl 19 0 empty empty empty 0 -10 0 12 #fcfcfc #000000 #000000 0 1;
#X obj 569 849 tgl 19 0 empty empty empty 0 -10 0 12 #fcfcfc #000000 #000000 0 1;
#X obj 666 850 tgl 19 0 empty empty empty 0 -10 0 12 #fcfcfc #000000 #000000 0 1;
#X obj 763 856 tgl 19 0 empty empty empty 0 -10 0 12 #fcfcfc #000000 #000000 0 1;
#X obj 874 858 tgl 19 0 empty empty empty 0 -10 0 12 #fcfcfc #000000 #000000 0 1;
#X obj 145 939 bng 19 250 50 0 empty empty empty 0 -10 0 12 #fcfcfc #000000 #000000;
#X obj 251 937 bng 19 250 50 0 empty empty empty 0 -10 0 12 #fcfcfc #000000 #000000;
#X obj 331 929 bng 19 250 50 0 empty empty empty 0 -10 0 12 #fcfcfc #000000 #000000;
#X obj 425 939 bng 19 250 50 0 empty empty empty 0 -10 0 12 #fcfcfc #000000 #000000;
#X obj 528 939 bng 19 250 50 0 empty empty empty 0 -10 0 12 #fcfcfc #000000 #000000;
#X obj 631 941 bng 19 250 50 0 empty empty empty 0 -10 0 12 #fcfcfc #000000 #000000;
#X obj 727 947 bng 19 250 50 0 empty empty empty 0 -10 0 12 #fcfcfc #000000 #000000;
#X obj 843 946 bng 19 250 50 0 empty empty empty 0 -10 0 12 #fcfcfc #000000 #000000;
#X obj 1084 538 receive Nine;
#X obj 1179 537 receive Ten;
#X obj 1264 536 receive Eleven;
#X obj 1378 532 receive Twe;
#X obj 1474 531 receive Thret;
#X obj 1576 535 receive Fort;
#X obj 1678 535 receive Fift;
#X obj 1780 536 receive Sixt;
#X obj 1118 377 bng 19 250 50 0 empty empty empty 0 -10 0 12 #fcfcfc #000000 #000000;
#X obj 1208 387 bng 19 250 50 0 empty empty empty 0 -10 0 12 #fcfcfc #000000 #000000;
#X obj 1300 389 bng 19 250 50 0 empty empty empty 0 -10 0 12 #fcfcfc #000000 #000000;
#X obj 1398 385 bng 19 250 50 0 empty empty empty 0 -10 0 12 #fcfcfc #000000 #000000;
#X obj 1492 387 bng 19 250 50 0 empty empty empty 0 -10 0 12 #fcfcfc #000000 #000000;
#X obj 1592 384 bng 19 250 50 0 empty empty empty 0 -10 0 12 #fcfcfc #000000 #000000;
#X obj 1693 389 bng 19 250 50 0 empty empty empty 0 -10 0 12 #fcfcfc #000000 #000000;
#X obj 1805 399 bng 19 250 50 0 empty empty empty 0 -10 0 12 #fcfcfc #000000 #000000;
#X obj 1116 425 spigot;
#X obj 1210 426 spigot;
#X obj 1300 427 spigot;
#X obj 1395 429 spigot;
#X obj 1498 433 spigot;
#X obj 1598 434 spigot;
#X obj 1692 439 spigot;
#X obj 1809 439 spigot;
#X obj 1150 381 tgl 19 0 empty empty empty 0 -10 0 12 #fcfcfc #000000 #000000 0 1;
#X obj 1254 384 tgl 19 0 empty empty empty 0 -10 0 12 #fcfcfc #000000 #000000 0 1;
#X obj 1335 390 tgl 19 0 empty empty empty 0 -10 0 12 #fcfcfc #000000 #000000 0 1;
#X obj 1430 388 tgl 19 0 empty empty empty 0 -10 0 12 #fcfcfc #000000 #000000 0 1;
#X obj 1537 384 tgl 19 0 empty empty empty 0 -10 0 12 #fcfcfc #000000 #000000 0 1;
#X obj 1634 385 tgl 19 0 empty empty empty 0 -10 0 12 #fcfcfc #000000 #000000 0 1;
#X obj 1731 391 tgl 19 0 empty empty empty 0 -10 0 12 #fcfcfc #000000 #000000 0 1;
#X obj 1842 393 tgl 19 0 empty empty empty 0 -10 0 12 #fcfcfc #000000 #000000 0 1;
#X obj 1113 474 bng 19 250 50 0 empty empty empty 0 -10 0 12 #fcfcfc #000000 #000000;
#X obj 1219 472 bng 19 250 50 0 empty empty empty 0 -10 0 12 #fcfcfc #000000 #000000;
#X obj 1299 464 bng 19 250 50 0 empty empty empty 0 -10 0 12 #fcfcfc #000000 #000000;
#X obj 1393 474 bng 19 250 50 0 empty empty empty 0 -10 0 12 #fcfcfc #000000 #000000;
#X obj 1496 474 bng 19 250 50 0 empty empty empty 0 -10 0 12 #fcfcfc #000000 #000000;
#X obj 1599 476 bng 19 250 50 0 empty empty empty 0 -10 0 12 #fcfcfc #000000 #000000;
#X obj 1695 482 bng 19 250 50 0 empty empty empty 0 -10 0 12 #fcfcfc #000000 #000000;
#X obj 1811 481 bng 19 250 50 0 empty empty empty 0 -10 0 12 #fcfcfc #000000 #000000;
#X obj 996 1065 receive Nine;
#X obj 1091 1064 receive Ten;
#X obj 1176 1063 receive Eleven;
#X obj 1290 1059 receive Twe;
#X obj 1386 1058 receive Thret;
#X obj 1488 1062 receive Fort;
#X obj 1590 1062 receive Fift;
#X obj 1692 1063 receive Sixt;
#X obj 1030 904 bng 19 250 50 0 empty empty empty 0 -10 0 12 #fcfcfc #000000 #000000;
#X obj 1120 914 bng 19 250 50 0 empty empty empty 0 -10 0 12 #fcfcfc #000000 #000000;
#X obj 1212 916 bng 19 250 50 0 empty empty empty 0 -10 0 12 #fcfcfc #000000 #000000;
#X obj 1310 912 bng 19 250 50 0 empty empty empty 0 -10 0 12 #fcfcfc #000000 #000000;
#X obj 1404 914 bng 19 250 50 0 empty empty empty 0 -10 0 12 #fcfcfc #000000 #000000;
#X obj 1504 911 bng 19 250 50 0 empty empty empty 0 -10 0 12 #fcfcfc #000000 #000000;
#X obj 1605 916 bng 19 250 50 0 empty empty empty 0 -10 0 12 #fcfcfc #000000 #000000;
#X obj 1717 926 bng 19 250 50 0 empty empty empty 0 -10 0 12 #fcfcfc #000000 #000000;
#X obj 1028 952 spigot;
#X obj 1122 953 spigot;
#X obj 1212 954 spigot;
#X obj 1307 956 spigot;
#X obj 1410 960 spigot;
#X obj 1510 961 spigot;
#X obj 1604 966 spigot;
#X obj 1721 966 spigot;
#X obj 1062 908 tgl 19 0 empty empty empty 0 -10 0 12 #fcfcfc #000000 #000000 0 1;
#X obj 1166 911 tgl 19 0 empty empty empty 0 -10 0 12 #fcfcfc #000000 #000000 0 1;
#X obj 1247 917 tgl 19 0 empty empty empty 0 -10 0 12 #fcfcfc #000000 #000000 0 1;
#X obj 1342 915 tgl 19 0 empty empty empty 0 -10 0 12 #fcfcfc #000000 #000000 0 1;
#X obj 1449 911 tgl 19 0 empty empty empty 0 -10 0 12 #fcfcfc #000000 #000000 0 1;
#X obj 1546 912 tgl 19 0 empty empty empty 0 -10 0 12 #fcfcfc #000000 #000000 0 1;
#X obj 1643 918 tgl 19 0 empty empty empty 0 -10 0 12 #fcfcfc #000000 #000000 0 1;
#X obj 1754 920 tgl 19 0 empty empty empty 0 -10 0 12 #fcfcfc #000000 #000000 0 1;
#X obj 1025 1001 bng 19 250 50 0 empty empty empty 0 -10 0 12 #fcfcfc #000000 #000000;
#X obj 1131 999 bng 19 250 50 0 empty empty empty 0 -10 0 12 #fcfcfc #000000 #000000;
#X obj 1211 991 bng 19 250 50 0 empty empty empty 0 -10 0 12 #fcfcfc #000000 #000000;
#X obj 1305 1001 bng 19 250 50 0 empty empty empty 0 -10 0 12 #fcfcfc #000000 #000000;
#X obj 1408 1001 bng 19 250 50 0 empty empty empty 0 -10 0 12 #fcfcfc #000000 #000000;
#X obj 1511 1003 bng 19 250 50 0 empty empty empty 0 -10 0 12 #fcfcfc #000000 #000000;
#X obj 1607 1009 bng 19 250 50 0 empty empty empty 0 -10 0 12 #fcfcfc #000000 #000000;
#X obj 1723 1008 bng 19 250 50 0 empty empty empty 0 -10 0 12 #fcfcfc #000000 #000000;
#X obj 221 27 receive dram;
#X obj 522 1210 *~;
#X obj 697 1213 receive dramsound;
#X obj 455 1285 dac~;
#X floatatom 378 115 5 0 0 0 - - - 0;
#X msg 319 31 60;
#X obj 332 84 /;
#X floatatom 390 161 5 0 0 0 - - - 0;
#X obj 312 124 * 1000;
#X msg 505 30 350;
#X connect 0 0 330 0;
#X connect 1 0 331 0;
#X connect 2 0 9 0;
#X connect 3 0 2 0;
#X connect 3 0 4 0;
#X connect 4 0 5 0;
#X connect 5 0 7 0;
#X connect 6 0 5 0;
#X connect 7 0 8 0;
#X connect 8 0 10 0;
#X connect 8 0 11 0;
#X connect 9 0 8 0;
#X connect 10 0 8 1;
#X connect 11 0 85 0;
#X connect 12 0 13 0;
#X connect 13 0 14 0;
#X connect 13 0 15 0;
#X connect 13 0 16 0;
#X connect 13 0 17 0;
#X connect 13 0 18 0;
#X connect 13 0 19 0;
#X connect 13 0 20 0;
#X connect 13 0 21 0;
#X connect 13 0 184 0;
#X connect 13 0 185 0;
#X connect 13 0 186 0;
#X connect 13 0 187 0;
#X connect 13 0 188 0;
#X connect 13 0 189 0;
#X connect 13 0 190 0;
#X connect 13 0 191 0;
#X connect 14 0 22 0;
#X connect 15 0 23 0;
#X connect 16 0 24 0;
#X connect 17 0 25 0;
#X connect 18 0 26 0;
#X connect 19 0 27 0;
#X connect 20 0 28 0;
#X connect 21 0 29 0;
#X connect 22 0 30 0;
#X connect 23 0 31 0;
#X connect 24 0 32 0;
#X connect 25 0 33 0;
#X connect 26 0 34 0;
#X connect 27 0 35 0;
#X connect 28 0 36 0;
#X connect 29 0 37 0;
#X connect 38 0 46 0;
#X connect 39 0 47 0;
#X connect 40 0 48 0;
#X connect 41 0 49 0;
#X connect 42 0 50 0;
#X connect 43 0 51 0;
#X connect 44 0 52 0;
#X connect 45 0 53 0;
#X connect 46 0 65 0;
#X connect 47 0 66 0;
#X connect 48 0 67 0;
#X connect 49 0 68 0;
#X connect 50 0 69 0;
#X connect 51 0 70 0;
#X connect 52 0 71 0;
#X connect 53 0 72 0;
#X connect 54 0 46 1;
#X connect 55 0 47 1;
#X connect 56 0 48 1;
#X connect 57 0 49 1;
#X connect 58 0 50 1;
#X connect 59 0 51 1;
#X connect 60 0 52 1;
#X connect 61 0 53 1;
#X connect 62 0 84 0;
#X connect 63 0 64 0;
#X connect 64 0 326 0;
#X connect 65 0 79 0;
#X connect 66 0 79 0;
#X connect 67 0 79 0;
#X connect 68 0 79 0;
#X connect 69 0 79 0;
#X connect 70 0 79 0;
#X connect 71 0 79 0;
#X connect 72 0 79 0;
#X connect 73 0 82 0;
#X connect 74 0 75 0;
#X connect 75 0 326 0;
#X connect 76 0 195 0;
#X connect 77 0 78 0;
#X connect 78 0 326 0;
#X connect 80 0 76 0;
#X connect 81 0 73 0;
#X connect 82 0 74 0;
#X connect 83 0 62 0;
#X connect 84 0 63 0;
#X connect 85 0 12 0;
#X connect 86 0 85 1;
#X connect 87 0 95 0;
#X connect 88 0 96 0;
#X connect 89 0 97 0;
#X connect 90 0 98 0;
#X connect 91 0 99 0;
#X connect 92 0 100 0;
#X connect 93 0 101 0;
#X connect 94 0 102 0;
#X connect 103 0 111 0;
#X connect 104 0 112 0;
#X connect 105 0 113 0;
#X connect 106 0 114 0;
#X connect 107 0 115 0;
#X connect 108 0 116 0;
#X connect 109 0 117 0;
#X connect 110 0 118 0;
#X connect 111 0 119 0;
#X connect 112 0 120 0;
#X connect 113 0 121 0;
#X connect 114 0 122 0;
#X connect 115 0 123 0;
#X connect 116 0 124 0;
#X connect 117 0 125 0;
#X connect 118 0 126 0;
#X connect 119 0 134 0;
#X connect 120 0 135 0;
#X connect 121 0 136 0;
#X connect 122 0 137 0;
#X connect 123 0 138 0;
#X connect 124 0 139 0;
#X connect 125 0 140 0;
#X connect 126 0 141 0;
#X connect 127 0 119 1;
#X connect 128 0 120 1;
#X connect 129 0 121 1;
#X connect 130 0 122 1;
#X connect 131 0 123 1;
#X connect 132 0 124 1;
#X connect 133 0 125 1;
#X connect 134 0 182 0;
#X connect 135 0 182 0;
#X connect 136 0 182 0;
#X connect 137 0 182 0;
#X connect 138 0 182 0;
#X connect 139 0 182 0;
#X connect 140 0 182 0;
#X connect 141 0 182 0;
#X connect 142 0 150 0;
#X connect 143 0 151 0;
#X connect 144 0 152 0;
#X connect 145 0 153 0;
#X connect 146 0 154 0;
#X connect 147 0 155 0;
#X connect 148 0 156 0;
#X connect 149 0 157 0;
#X connect 150 0 158 0;
#X connect 151 0 159 0;
#X connect 152 0 160 0;
#X connect 153 0 161 0;
#X connect 154 0 162 0;
#X connect 155 0 163 0;
#X connect 156 0 164 0;
#X connect 157 0 165 0;
#X connect 158 0 174 0;
#X connect 159 0 175 0;
#X connect 160 0 176 0;
#X connect 161 0 177 0;
#X connect 162 0 178 0;
#X connect 163 0 179 0;
#X connect 164 0 180 0;
#X connect 165 0 181 0;
#X connect 166 0 158 1;
#X connect 167 0 159 1;
#X connect 168 0 160 1;
#X connect 169 0 161 1;
#X connect 170 0 162 1;
#X connect 171 0 163 1;
#X connect 172 0 164 1;
#X connect 173 0 165 1;
#X connect 174 0 183 0;
#X connect 175 0 183 0;
#X connect 176 0 183 0;
#X connect 177 0 183 0;
#X connect 178 0 183 0;
#X connect 179 0 183 0;
#X connect 180 0 183 0;
#X connect 181 0 183 0;
#X connect 184 0 87 0;
#X connect 185 0 88 0;
#X connect 186 0 89 0;
#X connect 187 0 90 0;
#X connect 188 0 91 0;
#X connect 189 0 92 0;
#X connect 190 0 93 0;
#X connect 191 0 94 0;
#X connect 195 0 77 0;
#X connect 196 0 126 1;
#X connect 197 0 38 0;
#X connect 198 0 39 0;
#X connect 199 0 40 0;
#X connect 200 0 41 0;
#X connect 201 0 42 0;
#X connect 202 0 43 0;
#X connect 203 0 44 0;
#X connect 204 0 45 0;
#X connect 205 0 213 0;
#X connect 206 0 214 0;
#X connect 207 0 215 0;
#X connect 208 0 216 0;
#X connect 209 0 217 0;
#X connect 210 0 218 0;
#X connect 211 0 219 0;
#X connect 212 0 220 0;
#X connect 213 0 221 0;
#X connect 214 0 222 0;
#X connect 215 0 223 0;
#X connect 216 0 224 0;
#X connect 217 0 225 0;
#X connect 218 0 226 0;
#X connect 219 0 227 0;
#X connect 220 0 228 0;
#X connect 221 0 237 0;
#X connect 222 0 238 0;
#X connect 223 0 239 0;
#X connect 224 0 240 0;
#X connect 225 0 241 0;
#X connect 226 0 242 0;
#X connect 227 0 243 0;
#X connect 228 0 244 0;
#X connect 229 0 221 1;
#X connect 230 0 222 1;
#X connect 231 0 223 1;
#X connect 232 0 224 1;
#X connect 233 0 225 1;
#X connect 234 0 226 1;
#X connect 235 0 227 1;
#X connect 236 0 228 1;
#X connect 237 0 79 0;
#X connect 238 0 79 0;
#X connect 239 0 79 0;
#X connect 240 0 79 0;
#X connect 241 0 79 0;
#X connect 242 0 79 0;
#X connect 243 0 79 0;
#X connect 244 0 79 0;
#X connect 245 0 253 0;
#X connect 246 0 254 0;
#X connect 247 0 255 0;
#X connect 248 0 256 0;
#X connect 249 0 257 0;
#X connect 250 0 258 0;
#X connect 251 0 259 0;
#X connect 252 0 260 0;
#X connect 253 0 261 0;
#X connect 254 0 262 0;
#X connect 255 0 263 0;
#X connect 256 0 264 0;
#X connect 257 0 265 0;
#X connect 258 0 266 0;
#X connect 259 0 267 0;
#X connect 260 0 268 0;
#X connect 261 0 277 0;
#X connect 262 0 278 0;
#X connect 263 0 279 0;
#X connect 264 0 280 0;
#X connect 265 0 281 0;
#X connect 266 0 282 0;
#X connect 267 0 283 0;
#X connect 268 0 284 0;
#X connect 269 0 261 1;
#X connect 270 0 262 1;
#X connect 271 0 263 1;
#X connect 272 0 264 1;
#X connect 273 0 265 1;
#X connect 274 0 266 1;
#X connect 275 0 267 1;
#X connect 276 0 268 1;
#X connect 277 0 182 0;
#X connect 278 0 182 0;
#X connect 279 0 182 0;
#X connect 280 0 182 0;
#X connect 281 0 182 0;
#X connect 282 0 182 0;
#X connect 283 0 182 0;
#X connect 284 0 182 0;
#X connect 285 0 293 0;
#X connect 286 0 294 0;
#X connect 287 0 295 0;
#X connect 288 0 296 0;
#X connect 289 0 297 0;
#X connect 290 0 298 0;
#X connect 291 0 299 0;
#X connect 292 0 300 0;
#X connect 293 0 301 0;
#X connect 294 0 302 0;
#X connect 295 0 303 0;
#X connect 296 0 304 0;
#X connect 297 0 305 0;
#X connect 298 0 306 0;
#X connect 299 0 307 0;
#X connect 300 0 308 0;
#X connect 301 0 317 0;
#X connect 302 0 318 0;
#X connect 303 0 319 0;
#X connect 304 0 320 0;
#X connect 305 0 321 0;
#X connect 306 0 322 0;
#X connect 307 0 323 0;
#X connect 308 0 324 0;
#X connect 309 0 301 1;
#X connect 310 0 302 1;
#X connect 311 0 303 1;
#X connect 312 0 304 1;
#X connect 313 0 305 1;
#X connect 314 0 306 1;
#X connect 315 0 307 1;
#X connect 316 0 308 1;
#X connect 317 0 183 0;
#X connect 318 0 183 0;
#X connect 319 0 183 0;
#X connect 320 0 183 0;
#X connect 321 0 183 0;
#X connect 322 0 183 0;
#X connect 323 0 183 0;
#X connect 324 0 183 0;
#X connect 325 0 3 0;
#X connect 325 0 86 0;
#X connect 326 0 328 0;
#X connect 326 0 328 1;
#X connect 327 0 326 1;
#X connect 330 0 1 0;
#X connect 331 0 329 0;
#X connect 331 0 333 0;
#X connect 333 0 2 1;
#X connect 333 0 332 0;
#X connect 334 0 331 1;
