#N canvas 1139 0 769 956 12;
#X text 227 243 main clock;
#X floatatom 210 328 5 0 0 0 - - - 0;
#X obj 203 372 loadbang;
#X text 248 417 set clock;
#X obj 206 455 send clock;
#X obj 212 294 receive clock;
#X text 514 150 main dashboard;
#X obj 497 451 receive bass;
#X obj 470 541 receive secondsequence;
#X obj 483 234 receive mainsequence;
#X obj 387 280 hsl 162 19 0 127 0 0 empty empty empty -2 -10 0 12 #0400ff #000000 #000000 0 1;
#X obj 380 388 hsl 162 19 0 127 0 0 empty empty empty -2 -10 0 12 #ff0400 #000000 #000000 0 1;
#X obj 384 492 hsl 162 19 0 127 0 0 empty empty empty -2 -10 0 12 #00faff #000000 #000000 0 1;
#X obj 381 602 hsl 162 19 0 127 0 0 empty empty empty -2 -10 0 12 #9c00ff #000000 #000000 0 1;
#X obj 567 279 hsl 162 19 0 127 0 0 empty empty empty -2 -10 0 12 #0400ff #000000 #000000 0 1;
#X obj 560 387 hsl 162 19 0 127 0 0 empty empty empty -2 -10 0 12 #ff0400 #000000 #000000 0 1;
#X obj 561 497 hsl 162 19 0 127 0 0 empty empty empty -2 -10 0 12 #00faff #000000 #000000 0 1;
#X obj 561 601 hsl 162 19 0 127 0 0 empty empty empty -2 -10 0 12 #9c00ff #000000 #000000 0 1;
#X obj 390 249 r main-v;
#X obj 398 450 r bass-v;
#X obj 399 559 r seco-v;
#X obj 644 555 r seco-f;
#X obj 642 450 r bass-f;
#X obj 650 250 r main-f;
#X text 78 98 controller;
#X obj 94 170 bng 19 250 50 0 empty empty empty 0 -10 0 12 #fcfcfc #000000 #000000;
#X text 82 132 start;
#X obj 94 203 s start;
#X obj 99 280 bng 19 250 50 0 empty empty empty 0 -10 0 12 #fcfcfc #000000 #000000;
#X obj 92 394 bng 19 250 50 0 empty empty empty 0 -10 0 12 #fcfcfc #000000 #000000;
#X obj 93 528 bng 19 250 50 0 empty empty empty 0 -10 0 12 #fcfcfc #000000 #000000;
#X obj 93 566 s seco;
#X obj 98 319 s main;
#X text 62 239 main sequence;
#X text 57 487 second sequence;
#X obj 89 678 bng 19 250 50 0 empty empty empty 0 -10 0 12 #fcfcfc #000000 #000000;
#X text 53 637 bass;
#X obj 89 716 s bass;
#X text 373 776 It just a tiny demo \, we need to add more paraments in the final performance;
#X text 368 718 left side is volume of each channel \, right side is some other things about each channel;
#X obj 820 423 vsl 19 162 0 1 0 0 empty empty empty 0 -9 0 12 #00ff04 #000000 #000000 0 1;
#X obj 971 434 vsl 19 162 0 1 0 0 empty empty empty 0 -9 0 12 #0400ff #000000 #000000 0 1;
#X obj 1116 425 vsl 19 162 0 1 0 0 empty empty empty 0 -9 0 12 #9c00ff #000000 #000000 0 1;
#X obj 1252 424 vsl 19 162 0 1 0 0 empty empty empty 0 -9 0 12 #00faff #000000 #000000 0 1;
#X text 1061 313 sound controller;
#X text 1247 388 bass sound;
#X text 1074 393 mainsequence sound;
#X text 948 394 seco sound;
#X obj 1102 633 send mainsequence;
#X obj 949 632 send seco;
#X text 943 705 based on my solo performance \, use the control system at here;
#X obj 1271 629 send bass;
#X msg 204 413 175;
#X obj 505 337 receive volin;
#X obj 646 339 r volin-f;
#X obj 388 341 r volin-v;
#X obj 801 627 send volin;
#X text 56 353 volin;
#X obj 92 432 s volin;
#X text 783 374 volin sound (just a sample here);
#X obj 189 662 hsl 162 19 0 127 0 0 empty empty empty -2 -10 0 12 #9c00ff #000000 #000000 0 1;
#X obj 195 613 r acid-v;
#X text 200 577 acid;
#X text 197 705 (not avilable now);
#X obj 59 858 hsl 162 19 0 127 0 0 empty empty empty -2 -10 0 12 #9c00ff #000000 #000000 0 1;
#X text 67 901 (not avilable now);
#X text 70 773 beal;
#X obj 65 809 r beal-v;
#X text 370 846 reference: work from u7302829 work from u7119769 https://anu365.sharepoint.com/sites/SMC2023/_layouts/15/stream.aspx?id=%2Fsites%2FSMC2023%2FShared%20Documents%2FGeneral%2Fdiary%2Dsubmissions%2Fdiary%2Dweek%2D10%2Fu7302829%2Dweek%2D10%2Emp4&referrer=Teams%2ETEAMS%2DELECTRON&referrerScenario=teamsSdk%2DopenFilePreview;
#X connect 2 0 52 0;
#X connect 5 0 1 0;
#X connect 18 0 10 0;
#X connect 19 0 12 0;
#X connect 20 0 13 0;
#X connect 21 0 17 0;
#X connect 22 0 16 0;
#X connect 23 0 14 0;
#X connect 25 0 27 0;
#X connect 28 0 32 0;
#X connect 29 0 58 0;
#X connect 30 0 31 0;
#X connect 35 0 37 0;
#X connect 40 0 56 0;
#X connect 41 0 49 0;
#X connect 42 0 48 0;
#X connect 43 0 51 0;
#X connect 52 0 4 0;
#X connect 54 0 15 0;
#X connect 55 0 11 0;
#X connect 61 0 60 0;
#X connect 67 0 64 0;
